<?xml version="1.0" standalone="no"?>
<!DOCTYPE svg PUBLIC "-//W3C//DTD SVG 20010904//EN"
 "http://www.w3.org/TR/2001/REC-SVG-20010904/DTD/svg10.dtd">
<svg version="1.0" xmlns="http://www.w3.org/2000/svg"
 width="300.000000pt" height="300.000000pt" viewBox="0 0 300.000000 300.000000"
 preserveAspectRatio="xMidYMid meet">
<metadata>
Created by potrace 1.14, written by Peter Selinger 2001-2017
</metadata>
<g transform="translate(0.000000,300.000000) scale(0.100000,-0.100000)"
fill="#000000" stroke="none">
<path d="M147 2652 c-9 -2 -17 -5 -17 -6 0 -2 45 -78 100 -170 55 -91 100
-170 100 -176 0 -5 5 -10 10 -10 6 0 10 -7 10 -15 0 -8 5 -15 10 -15 6 0 10
-4 10 -9 0 -12 131 -234 143 -242 5 -4 64 -6 130 -5 151 2 206 -13 192 -52 -3
-7 -1 -11 4 -8 5 3 23 -20 40 -52 18 -31 41 -72 52 -89 l21 -33 -51 -1 c-28 0
-90 0 -138 -1 -49 0 -91 -2 -95 -5 -9 -5 12 -44 88 -168 27 -44 58 -96 69
-116 22 -41 130 -226 187 -322 20 -34 42 -71 48 -82 6 -11 16 -29 23 -40 7
-11 23 -38 35 -60 12 -22 32 -56 44 -77 27 -42 83 -137 113 -189 118 -207 239
-409 244 -409 3 0 37 53 74 118 38 64 120 205 182 312 136 233 236 404 250
428 6 10 53 91 105 180 52 89 100 170 105 180 80 139 119 203 126 208 5 3 9
13 9 22 0 16 -14 18 -140 17 -78 0 -144 2 -149 5 -8 5 79 162 116 209 18 23
24 24 139 22 65 0 128 -3 139 -5 11 -2 28 2 38 9 17 12 79 106 131 200 37 66
195 333 221 375 31 49 32 70 3 70 -154 3 -492 0 -496 -5 -4 -3 -11 -20 -17
-37 -5 -17 -21 -39 -35 -50 -24 -17 -63 -18 -790 -18 -421 0 -778 2 -794 4
-33 4 -54 28 -63 69 -3 16 -11 31 -17 33 -13 5 -485 10 -509 6z m2153 -312 c8
0 -3 -9 -25 -19 -22 -11 -53 -26 -70 -34 -16 -8 -104 -53 -195 -99 l-165 -85
-329 0 -328 0 -217 110 c-243 123 -225 113 -218 124 4 6 1422 9 1547 3z
m-1575 -42 c14 -6 25 -14 25 -18 0 -4 15 -13 33 -21 17 -7 34 -16 37 -19 6 -7
14 -12 183 -99 65 -34 123 -61 129 -61 23 0 92 -96 164 -225 6 -11 47 -81 91
-156 44 -75 87 -154 95 -175 12 -32 16 -94 17 -324 1 -264 0 -283 -15 -255
-15 29 -105 184 -124 215 -5 8 -24 40 -41 70 -43 74 -55 95 -139 240 -81 138
-124 214 -194 338 -26 46 -58 101 -71 122 -14 22 -25 42 -25 44 0 3 -17 31
-37 63 -21 32 -43 67 -50 78 -7 11 -31 52 -55 90 -23 39 -41 73 -40 78 1 4 -2
7 -8 7 -5 0 -10 5 -10 10 0 13 3 13 35 -2z m1599 -22 c-3 -14 -9 -26 -14 -26
-4 0 -15 -18 -25 -40 -10 -22 -22 -40 -27 -40 -4 0 -8 -5 -8 -11 0 -7 -24 -51
-54 -98 -29 -47 -75 -124 -102 -171 -26 -47 -95 -166 -153 -265 -57 -99 -109
-190 -115 -202 -6 -13 -14 -23 -18 -23 -5 0 -8 -4 -8 -8 0 -5 -48 -91 -106
-193 -59 -101 -115 -200 -126 -219 -11 -19 -23 -38 -27 -43 -10 -10 -6 542 4
572 7 22 141 257 183 321 9 14 17 27 17 30 1 6 78 135 104 174 11 17 53 47 93
69 114 60 187 97 195 98 5 0 15 6 23 13 8 7 42 26 75 42 33 16 66 35 73 42 19
17 24 10 16 -22z"/>
</g>
</svg>
