<?xml version="1.0" encoding="UTF-8"?> <svg xmlns="http://www.w3.org/2000/svg" width="546" height="547" viewBox="0 0 546 547" fill="none"><ellipse opacity="0.8" cx="273" cy="273.5" rx="273.5" ry="273" transform="rotate(-90 273 273.5)" fill="url(#paint0_linear)"></ellipse><path d="M174.945 374.828C180.981 381.313 186.76 387.696 192.437 394.028C193.869 395.611 195.25 397.194 196.682 398.777L198.063 400.308L198.115 400.359L198.012 400.462L197.859 400.615L197.552 400.921L196.836 401.687C196.12 402.453 195.353 403.219 194.637 403.985C193.869 404.751 193.102 405.466 192.335 406.181C191.568 406.896 190.801 407.61 189.982 408.376C189.164 409.091 188.346 409.755 187.527 410.47C186.607 411.236 185.737 412.002 184.817 412.717L182.004 414.861C181.543 415.219 181.083 415.576 180.571 415.934L179.139 416.904C178.168 417.568 177.196 418.232 176.224 418.895C172.235 421.397 168.092 423.593 163.795 425.431C159.448 427.219 154.998 428.597 150.395 429.465C145.792 430.333 141.087 430.64 136.432 430.384C134.335 430.282 132.085 430.027 129.988 429.67C128.914 429.465 127.891 429.261 126.868 429.006C125.896 428.75 124.924 428.495 124.004 428.189C121.344 427.321 118.736 426.248 116.281 425.023C115.053 424.41 113.826 423.746 112.649 423.031C112.036 422.674 111.473 422.317 110.91 421.908C110.757 421.806 110.655 421.755 110.552 421.653L110.245 421.448L109.939 421.244C109.887 421.244 109.887 421.142 109.887 421.091V420.938L109.427 417.057L109.325 416.036L109.274 415.015L109.12 412.921L108.967 410.827C108.916 410.112 108.916 409.449 108.916 408.734L108.865 406.64C108.865 405.925 108.813 405.262 108.865 404.547C108.865 393.415 110.808 382.232 115.258 371.968C118.633 364.258 123.134 357.007 128.914 350.726C131.062 348.428 133.312 346.233 135.767 344.19C136.944 343.169 138.222 342.199 139.501 341.28C140.166 340.82 140.78 340.36 141.445 339.952C141.803 339.697 142.058 339.543 142.365 339.339C142.672 339.135 142.979 338.982 143.235 338.778C143.49 338.624 143.746 338.471 144.053 338.318C144.207 338.267 144.309 338.165 144.462 338.114C144.513 338.267 144.513 338.42 144.565 338.573C144.718 339.084 144.974 339.543 145.229 339.952C145.332 340.105 145.434 340.258 145.536 340.463C145.639 340.667 145.792 340.82 145.894 341.024C146.15 341.382 146.406 341.739 146.662 342.097C147.173 342.812 147.736 343.526 148.298 344.19C149.423 345.569 150.6 346.897 151.776 348.224C154.129 350.828 156.584 353.433 159.039 355.935L161.238 358.181L163.591 360.53L164.818 361.756L164.921 361.807C164.972 361.858 164.972 361.756 165.023 361.756L165.176 361.603L165.483 361.296L166.097 360.684L168.501 358.386L177.758 349.654L196.222 332.241C197.961 330.607 200.16 328.616 201.388 327.339C212.538 315.442 225.733 303.34 238.418 291.187C247.777 282.2 256.626 274.132 265.73 265.604C275.089 256.873 285.37 247.375 293.809 238.235C296.52 235.324 301.532 230.677 305.521 226.848C323.269 209.844 341.068 192.789 358.816 175.734C364.442 170.372 370.272 165.01 375.95 159.7C376.103 159.547 376.257 159.393 376.41 159.291L376.666 159.087C376.717 158.985 376.666 158.883 376.666 158.781C376.666 158.27 376.615 157.759 376.615 157.249C376.563 156.023 376.564 154.849 376.512 153.879C376.359 149.896 376.564 145.811 377.28 141.828C377.638 139.836 378.149 137.845 378.763 135.853C379.377 133.913 380.144 131.973 381.013 130.083C382.752 126.356 385.105 122.832 387.918 119.717C388.276 119.309 388.634 118.951 388.992 118.594L389.555 118.032L390.168 117.471C390.731 116.96 391.294 116.5 391.856 116.041C392.163 115.837 392.419 115.632 392.726 115.377L393.186 115.071L393.391 114.918L393.442 114.866L393.493 114.918L393.595 115.02C394.107 115.53 394.618 115.99 395.13 116.5L396.562 117.981L398.659 120.177C409.86 131.921 421.061 143.768 432.262 155.308C433.08 156.125 433.898 156.993 434.717 157.861C435.637 159.087 438.092 160.364 436.098 161.589L434.563 163.427L433.796 164.346L433.233 164.959L432.108 166.185L431.546 166.797L430.932 167.359C427.761 170.525 424.232 173.334 420.293 175.58C415.128 178.44 409.195 180.227 403.159 180.125H402.034C401.676 180.125 401.267 180.074 400.909 180.074C400.142 180.023 399.426 179.921 398.659 179.819C397.175 179.614 395.692 179.308 394.26 178.899C392.828 178.491 391.396 177.98 390.015 177.419C389.299 177.112 388.634 176.806 387.969 176.448L387.662 176.295C387.56 176.244 387.509 176.193 387.406 176.142C383.212 180.125 379.018 184.159 374.824 188.193C366.948 195.699 358.867 203.052 350.837 210.558C345.927 215.154 340.454 220.209 336.311 224.448C321.53 239.511 305.828 254.064 290.178 268.872C281.329 277.247 272.634 285.927 263.735 294.353C244.504 312.531 225.273 330.403 206.605 349.041C200.723 354.913 192.949 361.96 186.811 367.373C183.078 370.641 179.549 373.041 178.014 373.705C176.019 374.573 178.526 371.203 184.203 365.535C194.995 354.811 204.712 344.599 217.601 332.854C231.769 319.884 246.09 306.25 259.899 294.353C271.714 284.14 283.938 271.936 295.804 260.651C319.536 238.132 343.165 215.46 366.743 192.84L376.922 183.087L381.985 178.185L384.542 175.734L385.821 174.508L386.486 173.844L386.844 173.538L386.997 173.385C387.048 173.334 387.1 173.231 387.151 173.334C387.662 173.691 388.225 173.997 388.787 174.304C389.35 174.61 389.861 174.814 390.373 175.07C391.447 175.58 392.572 175.989 393.697 176.346C395.948 177.061 398.249 177.572 400.602 177.776C405.308 178.185 410.064 177.572 414.463 175.887C415.025 175.682 415.537 175.478 416.099 175.223C416.611 174.968 417.174 174.763 417.685 174.457L419.271 173.64L420.805 172.721C421.316 172.414 421.777 172.108 422.288 171.751C422.748 171.393 423.26 171.087 423.72 170.729C424.641 170.014 425.613 169.3 426.482 168.483L427.812 167.308L429.091 166.083C429.96 165.266 430.727 164.398 431.494 163.529L432.108 162.866C432.313 162.661 432.466 162.457 432.62 162.253L433.591 161.027L434.103 160.415C434.001 160.21 433.796 160.057 433.591 159.853L432.569 158.781C419.629 145.198 406.637 131.615 393.697 117.981L393.442 117.726L393.391 117.675C393.391 117.675 393.391 117.675 393.339 117.624H393.288L393.135 117.726C392.93 117.879 392.777 117.981 392.623 118.134C392.265 118.441 391.958 118.696 391.6 119.054C390.731 119.871 389.913 120.739 389.094 121.607C387.509 123.394 386.077 125.334 384.9 127.428C382.445 131.564 380.706 136.058 379.632 140.755C379.121 143.104 378.763 145.504 378.558 147.853C378.354 150.253 378.354 152.653 378.456 155.053C378.507 155.666 378.507 156.279 378.558 156.84L378.609 159.291L378.66 159.904C378.507 160.057 378.354 160.21 378.2 160.312L377.28 161.181L375.95 162.457L370.631 167.563C356.463 181.146 342.347 194.678 328.179 208.261C322.604 213.622 316.722 219.188 311.148 224.243C297.389 236.754 284.91 249.315 271.918 261.877C260.922 272.549 249.619 283.17 238.469 293.842C225.375 306.301 212.282 318.812 199.189 331.271L172.695 356.547L169.37 359.713L167.376 361.603L165.995 362.879L165.33 363.543L164.972 363.849L164.818 364.003L164.716 364.105C164.665 364.156 164.665 364.054 164.614 364.054L161.903 361.449L160.011 359.56L156.788 356.292C154.64 354.096 152.543 351.85 150.446 349.552C148.4 347.254 146.355 344.905 144.513 342.301C144.36 342.046 144.155 341.79 144.002 341.535L143.848 341.331C143.848 341.28 143.797 341.28 143.797 341.229C143.695 341.075 143.593 340.922 143.542 340.718C143.542 340.667 143.542 340.616 143.49 340.565C143.439 340.565 143.388 340.616 143.337 340.616L143.03 340.769L142.774 340.922L142.416 341.126C141.854 341.484 141.291 341.841 140.78 342.25C139.706 343.016 138.632 343.833 137.558 344.701C135.461 346.386 133.466 348.224 131.573 350.114C127.789 353.943 124.464 358.233 121.6 362.777C115.923 371.917 112.394 382.334 110.962 393.006L110.706 394.896L110.603 395.815L110.552 396.785L110.245 400.564L110.143 404.393L110.092 405.364V406.334L110.143 408.274L110.194 410.215C110.194 410.878 110.297 411.491 110.297 412.155L110.552 415.985L111.013 419.814L111.064 420.376V420.478C111.064 420.529 111.064 420.58 111.115 420.58L111.32 420.734L111.933 421.142C115.36 423.338 119.145 425.023 123.032 426.299C126.919 427.525 130.96 428.342 135.051 428.699C139.143 429.057 143.235 428.904 147.275 428.291C151.316 427.678 155.356 426.657 159.243 425.227C166.251 422.572 173.309 418.844 179.907 414.198C180.725 413.585 181.543 412.972 182.362 412.41C183.18 411.798 183.998 411.236 184.765 410.572L187.118 408.632C187.885 407.968 188.704 407.355 189.42 406.64L191.67 404.598C192.437 403.934 193.205 403.219 193.921 402.504C194.585 401.84 195.25 401.176 195.864 400.564L195.966 400.462L196.018 400.411C196.018 400.411 196.018 400.359 195.966 400.359C194.023 398.113 192.079 395.866 190.136 393.619C187.732 390.913 185.379 388.206 183.129 385.704C179.19 381.058 177.247 378.607 174.945 374.828Z" fill="black"></path><path d="M393.595 159.751C392.214 158.729 391.14 157.555 390.424 156.125C389.657 154.593 388.992 152.959 388.532 151.274C388.48 151.07 388.378 150.866 388.327 150.713C388.276 150.508 388.225 150.304 388.276 150.151C388.48 149.079 388.429 148.057 388.327 147.036C388.225 146.015 388.174 144.994 388.429 143.972C388.583 143.206 388.685 142.44 388.89 141.674C389.248 140.347 389.81 139.07 390.577 137.947C391.038 137.283 391.498 136.721 392.01 136.262C392.265 136.006 392.521 135.802 392.777 135.598L392.93 135.292L393.032 135.241L393.084 135.189C393.084 135.189 393.135 135.138 393.135 135.189L393.493 135.598C393.646 135.751 393.8 136.006 393.902 136.006C394.209 135.955 394.567 136.109 394.925 136.313C395.078 136.415 395.283 136.517 395.436 136.67C395.59 136.772 395.743 136.926 395.897 137.079C396.51 137.64 397.073 138.253 397.738 138.815C398.659 139.632 399.323 140.602 400.091 141.521C400.909 142.44 401.676 143.564 403.108 143.819C403.569 143.921 403.927 144.432 404.336 144.789C406.075 146.372 407.865 147.904 409.553 149.538C410.115 150.049 410.576 150.662 411.036 151.223C411.189 151.376 411.24 151.683 411.394 151.785C412.775 152.551 413.951 153.521 415.128 154.542L416.867 156.074L417.838 156.942C418.299 157.351 418.759 157.759 419.27 158.168C420.344 159.036 421.112 160.006 422.032 160.925L422.39 161.283L422.595 161.487L422.646 161.538L422.595 161.589L422.493 161.64L421.674 162.1L419.986 163.07C418.861 163.734 417.48 164.397 416.253 164.908L416.099 164.959L415.997 165.01L415.792 165.061L415.383 165.163C415.128 165.266 414.872 165.317 414.616 165.368C414.105 165.521 413.542 165.572 413.031 165.725C412.366 165.878 411.65 165.98 411.138 166.338C409.297 167.665 407.098 167.87 404.898 168.074C403.62 168.176 402.341 168.585 401.011 168.482C399.579 168.38 398.096 168.125 396.664 167.665C395.232 167.257 393.748 166.644 392.265 165.878C391.805 165.674 391.345 165.214 390.987 164.755C390.629 164.295 390.373 163.734 390.168 163.274C389.964 162.661 390.322 161.895 390.68 161.436C391.191 160.874 392.061 160.874 392.623 161.334C393.186 161.793 393.8 162.049 394.413 162.355C395.027 162.661 395.59 162.917 396.152 163.376C396.817 163.887 397.584 164.244 398.403 164.602L399.017 164.857C399.221 164.959 399.426 165.01 399.63 165.112C400.039 165.317 400.449 165.47 400.909 165.725C401.625 166.134 402.443 166.185 403.262 166.134C404.08 166.083 404.847 165.878 405.666 165.776C408.785 165.317 411.803 164.244 414.616 162.968C415.639 162.508 416.662 162.049 417.531 161.538C417.992 161.283 418.401 161.078 418.81 160.823L418.964 160.721L419.015 160.67L418.964 160.619L418.657 160.363L418.043 159.853L415.792 157.861L413.235 155.615C410.422 153.113 407.66 150.662 404.847 148.108C404.285 147.598 403.773 147.036 403.364 146.423C402.392 144.891 400.807 144.074 399.477 142.951C398.352 142.032 397.329 140.96 396.255 139.938L394.362 138.151L394.004 137.794L393.8 137.64L393.442 137.334L393.186 137.13C393.084 137.181 393.032 137.283 392.93 137.334C392.777 137.487 392.623 137.692 392.521 137.845L392.316 138.151L391.907 138.764C391.651 139.223 391.396 139.632 391.191 140.091C390.322 141.93 389.913 143.87 389.81 145.862C389.759 146.73 389.657 147.598 389.759 148.466C389.861 149.896 390.168 151.325 390.935 152.653C391.6 153.827 391.856 155.308 392.47 156.585C392.777 157.147 393.084 157.708 393.544 158.168C394.004 158.729 394.055 159.036 393.595 159.751Z" fill="black"></path><path d="M372.165 370.079C378.661 364.054 385.054 358.284 391.396 352.616C392.982 351.186 394.567 349.807 396.153 348.378L397.687 346.999L397.738 346.948L397.841 347.05L397.994 347.203L398.301 347.509L399.068 348.224C399.835 348.939 400.603 349.705 401.37 350.42C402.137 351.186 402.853 351.952 403.569 352.718C404.285 353.484 405.001 354.25 405.768 355.067C406.484 355.884 407.149 356.701 407.865 357.518C408.633 358.437 409.4 359.305 410.116 360.224L412.264 363.033C412.622 363.492 412.98 363.952 413.338 364.462L414.31 365.892C414.975 366.862 415.64 367.833 416.304 368.803C418.811 372.786 421.01 376.922 422.851 381.211C424.641 385.551 426.022 389.994 426.892 394.59C427.761 399.185 428.068 403.883 427.812 408.53C427.71 410.623 427.454 412.87 427.096 414.964C426.892 416.036 426.687 417.057 426.431 418.078C426.176 419.049 425.92 420.019 425.613 420.938C424.744 423.593 423.669 426.197 422.442 428.649C421.828 429.874 421.163 431.1 420.447 432.274C420.089 432.887 419.731 433.448 419.322 434.01C419.22 434.163 419.169 434.265 419.066 434.368L418.862 434.674L418.657 434.98C418.657 435.031 418.555 435.031 418.504 435.031H418.35L414.463 435.491L413.44 435.593L412.417 435.644L410.32 435.797L408.223 435.951C407.507 436.002 406.842 436.002 406.126 436.002L404.029 436.053C403.313 436.053 402.648 436.104 401.932 436.053C390.783 436.053 379.582 434.112 369.301 429.67C361.578 426.3 354.315 421.806 348.024 416.036C345.723 413.891 343.523 411.645 341.478 409.194C340.455 408.019 339.483 406.742 338.562 405.466C338.102 404.802 337.642 404.189 337.232 403.526C336.977 403.168 336.823 402.913 336.619 402.606C336.414 402.3 336.261 401.994 336.056 401.738C335.903 401.483 335.749 401.228 335.596 400.921C335.545 400.768 335.442 400.666 335.391 400.513C335.545 400.462 335.698 400.462 335.852 400.411C336.363 400.258 336.823 400.002 337.232 399.747C337.386 399.645 337.539 399.543 337.744 399.44C337.949 399.338 338.102 399.185 338.307 399.083C338.665 398.828 339.023 398.572 339.381 398.317C340.097 397.806 340.813 397.245 341.478 396.683C342.859 395.56 344.188 394.385 345.518 393.211C348.127 390.862 350.735 388.411 353.241 385.96L355.492 383.764L357.844 381.415L359.072 380.19L359.123 380.088C359.174 380.037 359.072 380.037 359.072 379.986L358.918 379.832L358.612 379.526L357.998 378.913L355.696 376.513L346.95 367.271L329.509 348.837C327.873 347.101 325.878 344.905 324.599 343.68C312.682 332.548 300.561 319.374 288.388 306.71C279.386 297.366 271.305 288.532 262.764 279.443C254.018 270.098 244.505 259.834 235.349 251.409C232.434 248.703 227.78 243.698 223.944 239.716C206.912 221.997 189.829 204.227 172.746 186.508C167.376 180.891 162.006 175.07 156.687 169.402C156.533 169.249 156.38 169.096 156.277 168.942L156.073 168.687C155.971 168.636 155.868 168.687 155.766 168.687C155.255 168.687 154.743 168.738 154.232 168.738C153.004 168.789 151.828 168.789 150.856 168.84C146.867 168.993 142.775 168.789 138.785 168.074C136.791 167.717 134.796 167.206 132.801 166.593C130.858 165.981 128.914 165.215 127.022 164.347C123.288 162.611 119.759 160.262 116.639 157.453C116.23 157.096 115.872 156.738 115.514 156.381L114.951 155.819L114.389 155.206C113.877 154.645 113.417 154.083 112.957 153.521C112.752 153.215 112.547 152.96 112.292 152.653L111.985 152.194L111.831 151.989L111.78 151.938L111.831 151.887L111.934 151.785C112.445 151.275 112.905 150.764 113.417 150.253L114.9 148.824L117.099 146.73C128.863 135.547 140.729 124.364 152.288 113.182C153.106 112.365 153.976 111.548 154.845 110.731C156.073 109.811 157.351 107.36 158.579 109.352L160.42 110.884L161.341 111.65L161.955 112.211L163.182 113.335L163.796 113.896L164.359 114.509C167.53 117.675 170.343 121.198 172.593 125.13C175.457 130.288 177.247 136.211 177.145 142.236V143.36C177.145 143.717 177.094 144.126 177.094 144.483C177.043 145.249 176.94 145.964 176.838 146.73C176.634 148.211 176.327 149.692 175.918 151.121C175.508 152.551 174.997 153.981 174.434 155.36C174.127 156.074 173.821 156.738 173.463 157.402L173.309 157.708C173.258 157.811 173.207 157.862 173.156 157.964C177.145 162.151 181.186 166.338 185.226 170.525C192.745 178.389 200.11 186.457 207.628 194.474C212.231 199.376 217.295 204.84 221.54 208.976C236.628 223.733 251.205 239.409 266.037 255.034C274.425 263.868 283.12 272.549 291.559 281.434C309.767 300.634 327.668 319.833 346.337 338.471C352.218 344.344 359.276 352.105 364.698 358.233C367.971 361.96 370.375 365.484 371.04 367.016C371.91 369.007 368.534 366.505 362.857 360.837C352.116 350.063 341.887 340.361 330.123 327.493C317.234 313.502 303.578 299.204 291.661 285.417C281.432 273.621 269.208 261.417 257.905 249.571C235.349 225.878 212.64 202.286 189.983 178.746L180.214 168.585L175.304 163.53L172.849 160.976L171.621 159.7L170.956 159.036L170.649 158.679L170.496 158.525C170.445 158.474 170.343 158.423 170.445 158.372C170.803 157.862 171.11 157.3 171.417 156.738C171.724 156.177 171.928 155.666 172.184 155.155C172.695 154.083 173.105 152.96 173.463 151.836C174.179 149.589 174.69 147.292 174.895 144.943C175.304 140.245 174.69 135.496 173.002 131.105C172.798 130.543 172.593 130.032 172.337 129.471C172.082 128.96 171.877 128.398 171.57 127.888L170.752 126.305L169.831 124.773C169.524 124.262 169.217 123.803 168.859 123.292C168.501 122.832 168.194 122.322 167.836 121.862C167.12 120.943 166.404 119.973 165.586 119.105L164.41 117.777L163.182 116.501C162.364 115.633 161.494 114.867 160.625 114.101L159.96 113.488C159.755 113.284 159.551 113.131 159.346 112.977L158.17 112.109L157.556 111.599C157.351 111.701 157.198 111.905 156.993 112.109L155.919 113.131C142.315 126.049 128.71 139.019 115.054 151.938L114.798 152.194L114.747 152.245C114.747 152.245 114.747 152.245 114.696 152.296V152.347L114.798 152.5C114.951 152.704 115.054 152.857 115.207 153.011C115.514 153.368 115.77 153.674 116.128 154.032C116.946 154.9 117.816 155.717 118.685 156.534C120.475 158.117 122.419 159.547 124.516 160.721C128.659 163.172 133.159 164.908 137.865 165.981C140.218 166.491 142.621 166.849 144.974 167.053C147.378 167.257 149.782 167.257 152.186 167.155C152.799 167.104 153.413 167.104 153.976 167.053L156.124 166.849L156.738 166.798C156.891 166.951 157.045 167.104 157.147 167.257L158.016 168.176L159.295 169.504L164.41 174.815C178.015 188.959 191.568 203.052 205.173 217.197C210.543 222.763 216.118 228.635 221.182 234.201C233.713 247.937 246.295 260.396 258.877 273.366C269.566 284.345 280.205 295.63 290.894 306.761C303.374 319.833 315.905 332.905 328.384 345.978L353.702 372.428L356.873 375.747L358.765 377.739L360.044 379.117L360.709 379.781L361.015 380.139L361.169 380.292L361.271 380.394C361.322 380.445 361.22 380.445 361.22 380.496L358.612 383.202L356.719 385.092L353.446 388.309C351.247 390.453 348.996 392.547 346.695 394.641C344.393 396.683 342.04 398.726 339.432 400.564C339.176 400.717 338.92 400.921 338.665 401.075L338.46 401.228C338.409 401.228 338.409 401.279 338.358 401.279C338.204 401.381 338.051 401.483 337.846 401.534C337.795 401.534 337.744 401.534 337.693 401.585C337.693 401.636 337.744 401.687 337.744 401.738L337.897 402.045L338.051 402.3L338.255 402.657C338.613 403.219 338.971 403.781 339.381 404.291C340.148 405.364 340.966 406.436 341.836 407.508C343.523 409.602 345.365 411.593 347.257 413.483C351.093 417.261 355.389 420.581 359.941 423.44C369.097 429.108 379.53 432.631 390.22 434.061L392.112 434.316L393.033 434.419L394.005 434.47L397.841 434.776L401.677 434.878L402.648 434.929H403.62L405.564 434.878L407.507 434.827C408.172 434.827 408.786 434.725 409.451 434.725L413.287 434.47L417.123 434.01L417.685 433.959H417.788C417.839 433.959 417.89 433.959 417.89 433.908L418.043 433.704L418.453 433.091C420.652 429.67 422.34 425.891 423.618 422.01C424.846 418.13 425.664 414.096 426.022 410.011C426.38 405.926 426.227 401.84 425.613 397.806C424.999 393.772 423.976 389.739 422.544 385.858C419.885 378.862 416.151 371.815 411.497 365.228C410.883 364.411 410.269 363.594 409.707 362.777C409.093 361.96 408.53 361.143 407.865 360.377L405.922 358.028C405.257 357.263 404.643 356.446 403.927 355.731L401.881 353.484C401.216 352.718 400.5 351.952 399.784 351.237C399.119 350.573 398.454 349.909 397.841 349.297L397.738 349.195L397.687 349.143C397.687 349.143 397.636 349.143 397.636 349.195C395.386 351.135 393.135 353.075 390.885 355.016C388.174 357.416 385.463 359.765 382.957 362.011C378.405 365.841 375.95 367.781 372.165 370.079Z" fill="black"></path><path d="M156.738 151.785C155.715 153.164 154.539 154.236 153.107 154.951C151.572 155.717 149.936 156.381 148.248 156.841C148.043 156.892 147.839 156.994 147.685 157.045C147.481 157.096 147.276 157.147 147.123 157.096C146.049 156.892 145.026 156.943 144.003 157.045C142.98 157.147 141.957 157.198 140.934 156.943C140.167 156.789 139.4 156.687 138.632 156.483C137.303 156.126 136.024 155.564 134.899 154.798C134.234 154.338 133.671 153.879 133.211 153.368C132.955 153.113 132.751 152.858 132.546 152.602L132.393 152.398L132.341 152.296L132.29 152.245C132.29 152.245 132.239 152.194 132.29 152.194L132.699 151.836C132.853 151.683 133.109 151.53 133.109 151.428C133.058 151.121 133.211 150.764 133.416 150.407C133.518 150.253 133.62 150.049 133.774 149.896C133.876 149.743 134.029 149.59 134.183 149.436C134.745 148.824 135.359 148.262 135.922 147.598C136.74 146.679 137.712 146.015 138.632 145.249C139.553 144.432 140.678 143.666 140.934 142.237C141.036 141.777 141.548 141.42 141.906 141.011C143.491 139.275 145.026 137.488 146.662 135.803C147.174 135.241 147.788 134.781 148.35 134.322C148.504 134.169 148.811 134.118 148.913 133.964C149.68 132.586 150.652 131.411 151.675 130.237L153.209 128.501L154.079 127.53C154.488 127.071 154.897 126.611 155.306 126.101C156.176 125.028 157.147 124.262 158.068 123.343L158.426 122.986L158.631 122.782L158.682 122.73L158.733 122.782L158.784 122.884L159.244 123.701L160.216 125.386C160.881 126.509 161.546 127.888 162.057 129.113L162.109 129.267L162.16 129.369L162.211 129.573L162.313 129.981C162.415 130.237 162.467 130.492 162.518 130.747C162.671 131.258 162.722 131.82 162.876 132.33C163.029 132.994 163.131 133.709 163.489 134.22C164.819 136.058 165.024 138.254 165.228 140.449C165.331 141.726 165.74 143.002 165.638 144.33C165.535 145.76 165.28 147.241 164.819 148.67C164.41 150.1 163.796 151.581 163.029 153.062C162.825 153.521 162.364 153.981 161.904 154.338C161.444 154.696 160.881 154.951 160.421 155.155C159.807 155.36 159.04 155.002 158.579 154.645C158.017 154.134 158.017 153.266 158.477 152.704C158.937 152.143 159.193 151.53 159.5 150.917C159.807 150.304 160.063 149.743 160.523 149.181C161.034 148.517 161.392 147.751 161.75 146.934L162.006 146.322C162.057 146.117 162.16 145.913 162.262 145.709C162.467 145.3 162.62 144.892 162.876 144.432C163.285 143.717 163.336 142.9 163.285 142.083C163.234 141.266 163.029 140.5 162.927 139.683C162.467 136.569 161.392 133.556 160.114 130.747C159.654 129.726 159.193 128.705 158.682 127.837C158.426 127.377 158.221 126.969 157.966 126.56L157.863 126.407L157.812 126.356L157.761 126.407L157.505 126.713L156.994 127.326L154.999 129.573L152.749 132.126C150.243 134.935 147.788 137.692 145.23 140.5C144.719 141.062 144.156 141.573 143.542 141.981C142.008 142.951 141.19 144.534 140.065 145.862C139.144 146.985 138.07 148.007 137.047 149.079L135.257 150.968L134.899 151.326L134.745 151.53L134.438 151.887L134.234 152.143C134.285 152.245 134.387 152.296 134.438 152.398C134.592 152.551 134.796 152.704 134.95 152.807L135.257 153.011L135.871 153.419C136.331 153.675 136.74 153.93 137.2 154.134C139.042 155.002 140.985 155.411 142.98 155.513C143.849 155.564 144.719 155.666 145.588 155.564C147.02 155.462 148.453 155.155 149.782 154.39C150.959 153.726 152.442 153.47 153.721 152.858C154.283 152.551 154.846 152.245 155.306 151.785C155.715 151.377 156.022 151.377 156.738 151.785Z" fill="black"></path><path d="M327.259 181.3C327.259 181.3 311.608 164.347 286.496 164.347C261.383 164.347 239.237 183.904 239.237 183.904C239.237 183.904 213.05 175.581 192.847 186.355C172.644 197.129 163.95 214.337 163.95 214.337C163.95 214.337 116.486 229.554 119.657 281.179C122.777 332.803 190.29 341.433 190.29 341.433C190.29 341.433 204.662 362.011 231.82 366.607C258.979 371.203 276.983 357.211 276.983 357.211C276.983 357.211 297.288 368.139 322.349 360.326C347.411 352.514 350.684 340.259 350.684 340.259C350.684 340.259 411.139 351.084 429.449 291.391C447.76 231.699 405.666 225.929 405.666 225.929C405.666 225.929 401.83 199.835 375.337 187.58C348.741 175.274 327.259 181.3 327.259 181.3Z" fill="white"></path><path d="M322.758 183.495C322.912 183.444 323.116 183.393 323.321 183.342C323.525 183.291 323.73 183.24 323.935 183.189C324.344 183.087 324.753 182.985 325.213 182.882C326.032 182.678 326.901 182.525 327.771 182.372C328.64 182.219 329.509 182.116 330.328 182.014C331.197 181.912 332.067 181.861 332.936 181.759C336.414 181.504 339.841 181.504 343.319 181.708C350.173 182.219 356.975 183.699 363.624 186.099C367.255 187.427 370.836 188.908 374.16 190.797C377.485 192.686 380.604 194.933 383.469 197.486C389.146 202.593 393.698 209.027 396.767 216.073C397.483 217.656 398.148 219.392 398.659 221.077C398.915 221.946 399.171 222.763 399.375 223.58C399.426 223.784 399.477 223.988 399.529 224.192C399.58 224.397 399.631 224.703 399.682 224.907C399.784 225.418 399.835 225.928 399.938 226.388C399.938 226.439 399.938 226.49 399.989 226.541C400.705 226.643 401.37 226.848 402.086 227.001L402.239 227.052L402.342 227.103L402.546 227.154L402.955 227.256C403.211 227.358 403.518 227.409 403.774 227.511C404.848 227.869 405.922 228.277 406.945 228.737C408.991 229.656 410.985 230.728 412.878 232.005C413.338 232.311 413.798 232.618 414.259 232.975L415.588 233.996L416.867 235.12C417.276 235.477 417.685 235.886 418.095 236.294L418.708 236.907L419.271 237.52C419.629 237.928 420.038 238.337 420.345 238.796L421.368 240.124C421.521 240.328 421.726 240.584 421.828 240.788L422.289 241.503C422.954 242.422 423.414 243.443 423.976 244.413C424.283 244.924 424.437 245.435 424.692 245.945C424.897 246.456 425.153 246.966 425.357 247.477C426.176 249.571 426.841 251.766 427.301 253.962C428.222 258.405 428.477 263 428.273 267.545C427.864 274.438 426.687 281.383 424.846 288.123C424.13 291.034 423.107 293.893 422.135 296.702L420.447 300.889C420.192 301.604 419.834 302.268 419.527 302.931L418.555 304.974C415.844 310.336 412.469 315.391 408.377 319.782C407.252 321.11 405.922 322.233 404.694 323.459L404.234 323.918L403.723 324.327L402.7 325.144L401.677 325.961C401.37 326.216 401.012 326.522 400.654 326.778C399.222 327.799 397.892 328.871 396.358 329.739C395.641 330.199 394.925 330.71 394.158 331.118L391.857 332.344C385.719 335.561 379.07 337.705 372.217 338.982C371.245 339.186 370.171 339.288 369.148 339.492C368.125 339.646 367.153 339.748 366.488 339.901C363.368 340.463 360.146 340.82 356.873 340.973C356.054 341.024 355.236 341.024 354.367 341.024C353.548 341.024 352.679 341.024 351.86 340.973C351.042 340.973 350.173 340.871 349.354 340.82L348.076 340.718C347.666 340.667 347.257 340.616 346.899 340.565C346.695 340.514 346.49 340.514 346.285 340.463L345.979 340.412C345.876 340.412 345.723 340.309 345.723 340.463C345.621 340.82 345.467 341.178 345.263 341.535C344.956 342.199 344.495 342.965 344.035 343.68C343.779 344.037 343.575 344.395 343.319 344.701L342.501 345.722C342.245 346.08 341.938 346.335 341.631 346.692C341.324 346.999 341.069 347.356 340.762 347.611L339.841 348.48L339.381 348.939L338.869 349.348C336.261 351.543 333.397 353.484 330.43 355.067C325.725 357.62 320.815 359.407 315.905 360.786C310.995 362.164 305.931 362.828 300.817 362.981C295.958 363.084 290.894 362.624 285.933 361.654C285.319 361.552 284.705 361.398 284.092 361.245C283.478 361.092 282.864 360.99 282.25 360.837C281.637 360.684 281.023 360.53 280.409 360.377C279.795 360.224 279.182 360.071 278.619 359.867C277.443 359.509 276.266 359.152 275.09 358.743C274.527 358.539 273.914 358.335 273.351 358.13C272.84 357.926 272.328 357.722 271.868 357.569C271.254 358.079 270.794 358.488 270.078 358.999C268.748 360.02 266.804 361.092 264.605 362.164C263.531 362.675 262.355 363.186 261.229 363.645C260.667 363.85 260.104 364.105 259.542 364.309C258.979 364.513 258.416 364.718 257.854 364.871C248.136 368.19 237.651 369.058 227.473 367.526C224.916 367.169 222.409 366.658 219.903 365.943C217.448 365.279 214.993 364.462 212.589 363.492C207.833 361.552 203.281 359.05 199.087 356.088C196.427 354.199 193.87 352.105 191.517 349.858C190.341 348.735 189.216 347.56 188.09 346.335C187.528 345.722 187.016 345.109 186.454 344.497L185.687 343.526L185.328 343.067L185.022 342.658C184.919 342.505 184.817 342.352 184.715 342.199C183.999 342.046 183.232 341.892 182.515 341.739C181.697 341.535 180.879 341.382 180.163 341.28C173.718 340.207 167.223 338.522 160.932 336.276C154.641 334.029 148.452 331.169 142.673 327.595C139.757 325.808 136.995 323.867 134.336 321.723C131.676 319.578 129.17 317.229 126.868 314.676C124.567 312.123 122.47 309.416 120.68 306.455C118.89 303.544 117.304 300.48 116.077 297.263C114.798 293.893 113.877 290.319 113.264 286.693C113.11 285.774 113.008 284.855 112.906 283.987C112.803 283.068 112.752 282.149 112.65 281.23C112.599 280.311 112.599 279.391 112.548 278.523L112.496 277.145C112.496 276.685 112.445 276.225 112.496 275.766L112.548 272.957C112.548 272.498 112.548 272.038 112.599 271.579L112.701 270.2L112.906 267.392C113.008 266.472 113.161 265.553 113.315 264.634L113.519 263.255C113.57 262.796 113.724 262.336 113.775 261.877L114.338 259.119C114.593 258.2 114.849 257.332 115.054 256.413L115.412 255.034L115.872 253.707C117.048 250.132 118.583 246.711 120.424 243.392L121.14 242.166L121.498 241.554L121.856 240.941L123.39 238.592L125.027 236.294C125.59 235.528 126.204 234.813 126.766 234.099C129.733 230.524 133.057 227.256 136.74 224.397C140.371 221.537 144.258 219.035 148.35 216.839C149.884 216.022 151.521 215.205 153.158 214.49C153.976 214.133 154.794 213.775 155.664 213.418C156.073 213.265 156.482 213.112 156.942 212.907C157.147 212.856 157.352 212.754 157.505 212.703L157.658 212.448C157.761 212.244 157.863 212.09 157.965 211.886C158.221 211.427 158.528 210.967 158.784 210.507C159.346 209.588 159.858 208.771 160.42 207.954C165.228 200.397 171.672 193.861 179.14 188.652C181.032 187.376 182.925 186.099 184.919 185.027L186.403 184.159C186.914 183.904 187.425 183.648 187.988 183.393C188.5 183.138 189.062 182.882 189.574 182.678C190.136 182.474 190.648 182.219 191.21 182.014C193.358 181.146 195.609 180.482 197.859 179.972C200.11 179.461 202.411 179.053 204.713 178.797C209.776 178.236 214.891 178.185 219.954 178.644C222.461 178.848 225.018 179.155 227.473 179.614C228.7 179.819 229.979 180.074 231.207 180.38C231.82 180.533 232.434 180.687 233.048 180.84L233.406 180.942L233.508 180.993L233.559 180.942L234.633 180.125C235.196 179.716 235.759 179.257 236.321 178.848C237.446 178.031 238.572 177.214 239.748 176.448C242.05 174.917 244.453 173.436 246.857 172.057C251.716 169.351 256.831 167.002 262.15 165.215C267.469 163.427 273.044 162.202 278.721 161.844C284.399 161.538 290.127 161.998 295.702 163.274C297.441 163.683 299.282 164.193 301.175 164.857C303.016 165.521 304.908 166.287 306.749 167.206C310.381 168.993 313.808 171.189 316.57 173.334C319.945 175.938 322.144 178.951 322.707 180.278C323.065 181.197 322.451 181.044 321.224 180.278C319.945 179.461 317.95 178.031 315.24 176.193C310.074 172.721 304.601 170.168 298.72 168.432C295.804 167.563 292.735 166.849 289.513 166.389C286.342 165.929 282.967 165.674 279.489 165.725C275.653 165.776 271.766 166.338 267.93 167.257C264.094 168.176 260.36 169.453 256.729 170.985C249.466 173.997 242.714 177.929 236.526 182.116C236.117 182.423 235.707 182.678 235.298 182.985C234.889 183.291 234.531 183.546 234.122 183.853C233.406 183.597 232.792 183.393 232.025 183.189C231.309 182.985 230.542 182.78 229.826 182.576C228.342 182.219 226.808 181.861 225.274 181.606C222.205 181.044 219.034 180.738 215.863 180.585C212.692 180.431 209.469 180.533 206.35 180.84C203.179 181.146 200.059 181.708 197.041 182.525C192.949 183.597 188.96 185.282 185.328 187.529C181.646 189.674 178.168 192.125 174.946 194.882C171.724 197.64 168.706 200.652 165.995 203.92C165.279 204.737 164.665 205.554 164.001 206.422C163.387 207.29 162.722 208.107 162.108 208.976C161.494 209.844 160.932 210.712 160.369 211.631C159.807 212.55 159.244 213.469 158.784 214.337C157.71 214.695 156.482 215.205 155.357 215.716C154.232 216.226 153.055 216.737 151.981 217.299C149.731 218.422 147.583 219.699 145.486 221.026C141.241 223.682 137.302 226.797 133.722 230.269C126.766 237.06 121.294 245.435 118.225 254.626C115.105 263.817 114.286 273.723 115.207 283.323C116.179 292.923 119.81 302.268 125.743 309.876C128.659 313.706 132.085 317.127 135.87 320.14C139.604 323.152 143.696 325.808 147.941 328.105C153.771 331.271 159.909 333.824 166.2 335.867C169.371 336.888 172.542 337.807 175.764 338.573C177.35 338.982 178.986 339.288 180.623 339.646C181.441 339.799 182.26 339.952 183.078 340.105L184.306 340.309L185.993 340.565C187.067 342.046 187.63 342.709 188.448 343.629C189.216 344.497 189.983 345.365 190.801 346.182C192.438 347.867 194.126 349.399 195.916 350.88C199.496 353.841 203.383 356.496 207.475 358.641C215.658 363.033 224.762 365.637 234.071 366.045C240.311 366.403 246.806 365.79 252.739 364.513C256.115 363.747 259.439 362.675 262.559 361.296C264.145 360.633 265.628 359.867 267.111 359.05L268.236 358.437L269.31 357.773C269.515 357.671 269.669 357.569 269.822 357.416L270.487 356.956C270.998 356.599 271.459 356.241 271.97 355.884C272.584 356.19 273.198 356.496 273.862 356.803L274.63 357.109L275.295 357.365C276.215 357.722 277.136 358.028 278.005 358.386C279.847 358.999 281.739 359.509 283.631 359.918C285.524 360.377 287.467 360.684 289.36 360.99C290.332 361.092 291.303 361.194 292.275 361.347C293.247 361.399 294.219 361.45 295.19 361.552C295.958 361.603 296.725 361.603 297.492 361.603H299.794L302.095 361.501L303.272 361.45L303.834 361.398L304.397 361.347L306.698 361.092L307.824 360.939C308.182 360.888 308.591 360.786 308.949 360.735L311.25 360.275L312.376 360.071L313.501 359.764C316.467 358.999 319.485 358.028 322.349 356.905C323.781 356.343 325.264 355.782 326.645 355.067C327.361 354.709 328.077 354.403 328.742 354.045L330.788 352.922C333.448 351.39 335.954 349.705 338.204 347.714C338.716 347.203 339.278 346.692 339.79 346.182L340.557 345.365C340.813 345.109 341.069 344.803 341.273 344.548L341.938 343.68L342.552 342.761C342.756 342.454 342.91 342.148 343.114 341.841L343.268 341.637C343.319 341.535 343.37 341.382 343.421 341.28L343.779 340.514C344.24 340.105 344.7 339.697 345.007 339.39C345.058 339.288 345.211 339.288 345.314 339.237L345.672 339.084C345.927 338.982 346.234 338.88 346.49 338.778C346.848 338.829 347.257 338.88 347.615 338.931L348.485 339.033L349.866 339.186C350.786 339.237 351.758 339.339 352.679 339.339C353.599 339.39 354.571 339.39 355.492 339.441C356.412 339.441 357.384 339.441 358.305 339.39C362.09 339.288 365.874 338.931 369.557 338.369C379.224 336.786 388.686 333.416 396.716 327.901C404.745 322.437 411.292 314.88 415.947 306.302C416.1 306.046 416.253 305.791 416.407 305.536L416.816 304.719L417.583 303.085L418.35 301.451C418.606 300.94 418.811 300.327 419.066 299.766L420.447 296.395C420.857 295.272 421.215 294.098 421.624 292.974L422.186 291.238C422.391 290.676 422.544 290.064 422.698 289.502L423.67 285.979C423.976 284.804 424.232 283.63 424.488 282.455L424.897 280.668C424.999 280.055 425.102 279.494 425.204 278.881C426.125 274.132 426.636 269.332 426.636 264.583C426.636 259.834 426.073 255.085 424.692 250.643C423.516 246.762 421.675 243.137 419.271 239.971C416.867 236.805 413.747 234.15 410.269 232.107C408.684 231.188 407.047 230.422 405.308 229.758C404.439 229.452 403.62 229.145 402.751 228.89C402.546 228.839 402.342 228.788 402.086 228.737L401.728 228.635L401.063 228.482C400.245 228.277 399.324 228.175 398.506 228.022C398.301 226.899 398.148 225.775 397.892 224.652C397.738 224.09 397.585 223.477 397.432 222.916C397.074 221.741 396.716 220.618 396.306 219.443C395.488 217.146 394.465 214.95 393.289 212.805C390.987 208.516 388.072 204.584 384.594 201.112C380.298 196.823 375.081 193.044 369.199 190.287C363.215 187.478 356.873 185.231 350.428 184.057C344.802 182.985 338.818 182.576 333.499 182.933C331.095 183.138 329.254 183.291 327.617 183.444C327.208 183.495 326.799 183.495 326.39 183.495C325.98 183.546 325.622 183.546 325.213 183.546C324.804 183.546 324.446 183.546 324.037 183.597C323.832 183.597 323.628 183.597 323.423 183.597C323.167 183.495 322.912 183.495 322.758 183.495Z" fill="black"></path><path d="M277.238 194.831L235.656 263L279.028 291.493L320.047 266.013L277.238 194.831Z" fill="#7C66FF"></path><path d="M231.77 274.081L275.039 300.123L318.411 274.081L275.039 336.735L231.77 274.081Z" fill="#7C66FF"></path><path d="M269.515 299.204L255.654 290.778C255.654 290.778 271.561 323.459 272.174 323.459C272.788 323.459 272.942 324.48 272.942 324.48L269.515 299.204Z" fill="white"></path><path d="M270.999 217.299L271.51 245.128L249.006 256.056L258.519 231.341C260.872 225.367 265.27 220.363 270.999 217.299Z" fill="white"></path><path d="M270.743 292.923C274.425 290.115 278.006 287.612 281.791 285.212C285.985 282.557 290.127 279.902 294.321 277.247C295.242 276.634 296.265 275.919 297.134 275.459C299.794 274.132 302.3 272.6 304.755 271.017L308.438 268.617L310.279 267.443L311.2 266.881L312.222 266.268C312.785 265.911 313.399 265.553 313.961 265.196C313.45 264.379 312.938 263.511 312.427 262.694L311.097 260.549C309.103 257.281 307.108 254.013 305.215 250.694C303.016 246.864 300.817 243.034 298.669 239.205C298.362 238.643 298.004 237.979 297.748 237.622C295.037 234.303 292.889 230.167 290.485 226.235C288.746 223.324 287.314 220.567 285.729 217.707C284.092 214.797 282.404 211.58 280.256 209.078C279.591 208.261 278.773 206.678 278.006 205.452L274.937 200.346L272.431 196.21L271.152 198.354L269.26 201.469C268.186 203.205 267.06 204.89 265.935 206.576C265.577 207.086 265.117 207.597 264.861 208.056C261.025 215.358 256.217 222.558 252.075 229.809C250.949 231.698 249.722 233.639 248.546 235.528C246.193 239.46 243.84 243.443 241.436 247.324C239.953 249.724 238.265 252.073 236.731 254.422C235.759 255.902 234.685 257.485 233.969 258.864C233.406 260.038 232.741 261.213 232.128 262.336C231.821 262.847 231.514 263.358 231.258 263.868C231.207 263.97 231.156 264.072 231.105 264.175C231.207 264.226 231.309 264.277 231.412 264.379C232.025 264.736 232.639 265.094 233.253 265.502C234.531 266.268 235.759 266.983 237.038 267.749C239.8 269.383 242.664 270.813 245.374 272.396C251.307 275.919 257.138 279.493 263.276 282.608C265.219 283.578 267.521 285.11 269.209 286.387C270.283 287.153 270.948 288.123 271.101 288.685C271.306 289.4 270.078 289.297 268.237 288.378C264.657 286.591 261.281 285.161 257.445 282.71C253.251 279.953 248.801 277.4 245.016 274.489C241.743 271.987 237.754 269.996 234.02 267.851L228.752 264.838L233.713 256.821C235.401 254.064 237.089 251.358 238.725 248.6C245.119 238.03 251.512 227.511 257.905 216.992L264.759 205.759L268.186 200.142L272.431 193.197C273.454 194.882 274.425 196.567 275.448 198.303C276.471 200.039 277.545 201.878 278.415 203.614C280.614 207.954 283.274 211.733 285.729 215.767C287.826 219.188 289.82 222.66 291.866 226.133C294.27 230.167 296.674 234.252 299.078 238.286C302.351 243.749 305.573 249.213 308.847 254.677L311.762 259.579L313.245 262.03L315.496 265.86C312.938 267.443 310.432 269.026 307.875 270.608C305.573 272.038 303.221 273.417 300.868 274.847C297.032 277.196 293.298 279.493 289.616 282.047C286.291 284.344 282.302 286.489 278.671 288.736C277.085 289.706 275.397 290.727 273.965 291.8C272.738 292.412 271.97 292.77 270.743 292.923Z" fill="#222221"></path><path d="M229.314 277.655C232.229 280.974 234.838 284.191 237.344 287.663C240.106 291.442 242.868 295.272 245.63 299.05C246.244 299.918 247.011 300.787 247.471 301.655C250.284 306.557 253.915 310.795 257.087 315.339C258.263 317.076 259.593 318.761 260.82 320.446C262.968 323.407 265.116 326.318 267.213 329.28L268.952 331.833L270.896 334.641L274.937 329.178C275.295 328.718 275.755 328.156 275.959 327.748C277.75 324.071 280.563 320.599 283.018 317.025C284.859 314.369 286.751 312.071 288.593 309.62C290.485 307.067 292.633 304.361 293.963 301.501C294.372 300.582 295.446 299.255 296.213 298.131C299.691 293.127 303.22 288.123 306.698 283.17C307.261 282.404 307.824 281.587 308.437 280.821L309.307 279.646L309.921 278.829C310.074 278.676 310.227 278.472 310.381 278.319C310.534 278.115 310.739 277.961 310.79 277.808C310.943 277.502 311.148 277.144 311.301 276.838C311.711 276.072 312.12 275.408 312.478 274.795C311.455 275.459 310.585 275.97 309.818 276.481C308.846 277.093 307.875 277.706 306.852 278.319C305.164 279.34 303.476 280.361 301.839 281.434C300.049 282.557 298.157 283.629 296.367 284.753C292.633 287.051 288.951 289.348 285.166 291.595C282.864 292.974 280.409 294.199 278.056 295.527C276.624 296.344 274.937 297.212 273.76 298.08C273.402 298.335 273.095 298.591 272.737 298.846C272.124 299.255 271.459 299.663 270.845 300.072C269.617 299.408 268.339 298.693 267.111 297.978C266.139 297.416 265.168 296.855 264.247 296.293C262.355 295.119 260.462 293.995 258.519 292.821C255.91 291.238 253.199 289.91 250.591 288.327C244.965 284.957 239.492 281.434 233.61 278.472C231.769 277.553 229.621 276.072 227.984 274.847C227.013 274.081 226.348 273.11 226.245 272.6C226.092 271.885 227.217 271.987 229.007 272.855C232.383 274.54 235.656 275.919 239.237 278.319C243.175 280.974 247.42 283.476 251 286.285C254.069 288.685 257.905 290.625 261.383 292.719L266.088 295.476L270.896 298.284C274.783 295.987 278.619 293.638 282.455 291.34C292.429 285.314 302.351 279.289 312.324 273.264L313.501 272.753C314.37 272.396 315.189 272.038 316.007 271.732C315.444 272.855 314.933 273.978 314.473 275L307.619 284.753L301.737 293.178C300.612 294.761 299.436 296.344 298.259 297.825C295.344 301.399 293.093 305.178 290.536 308.854C288.388 311.969 286.138 315.084 283.938 318.199L276.164 329.126C274.425 331.577 272.635 334.08 270.896 336.531L266.6 330.505L263.378 326.063C259.9 321.212 256.422 316.412 252.944 311.561C251.46 309.467 249.977 307.323 248.494 305.178C246.039 301.655 243.635 298.284 240.975 294.914C238.572 291.902 236.321 288.276 233.968 284.906C232.946 283.425 231.871 281.944 230.797 280.668C229.877 279.544 229.468 278.829 229.314 277.655Z" fill="#222221"></path><path d="M311.301 262.592C309.715 262.336 308.334 261.877 306.954 261.264L302.453 259.221C302.095 259.068 301.685 258.966 301.43 258.762C299.895 257.434 297.952 257.026 296.213 256.107C295.548 255.749 294.832 255.494 294.167 255.187C292.991 254.677 291.865 254.166 290.689 253.553C289.41 252.89 288.132 252.124 286.853 251.46C286.648 251.358 286.444 251.205 286.29 251.205C284.705 251.154 283.477 250.234 282.045 249.622C281.022 249.162 280.153 248.549 279.232 247.988C278.261 247.426 277.289 246.711 276.061 246.762C275.652 246.762 275.192 246.405 274.731 246.2L274.118 245.894L273.606 245.69L272.788 246.098L271.714 246.66L269.515 247.732C268.901 248.039 268.236 248.243 267.622 248.447C267.418 248.498 267.162 248.498 267.008 248.6C264.758 250.337 262.047 251.307 259.643 252.736C259.03 253.094 258.314 253.4 257.649 253.707C256.268 254.422 254.938 255.187 253.557 255.8C252.687 256.209 251.767 256.413 250.897 256.77C250.335 256.975 249.721 257.179 249.312 257.536C247.88 258.762 246.09 259.375 244.351 260.09C243.379 260.498 242.509 261.162 241.538 261.57C239.441 262.489 237.292 263.255 235.4 264.583C234.786 264.992 233.917 265.247 233.15 265.298C232.689 265.349 232.178 265.043 231.871 264.736C231.513 264.328 231.615 263.715 232.178 263.307C233.252 262.541 234.173 261.57 235.656 261.162C237.292 260.702 238.827 259.987 240.515 259.885C241.947 259.783 243.225 258.915 244.504 258.353C247.113 257.179 249.619 255.902 252.176 254.677C255.858 252.839 259.49 250.949 263.172 249.111C266.19 247.579 269.259 246.047 272.276 244.515C272.737 244.311 273.197 244.056 273.657 243.903C274.118 244.158 274.527 244.413 274.885 244.669L275.141 244.873L275.396 245.026C275.55 245.128 275.754 245.23 275.908 245.332C276.266 245.537 276.624 245.69 276.982 245.843C277.698 246.149 278.465 246.405 279.181 246.711C280.409 247.222 281.585 247.885 282.813 248.447L287.007 250.541L292.735 253.298C294.627 254.166 296.52 255.085 298.412 255.953C299.23 256.362 299.998 256.822 300.816 257.23C302.146 257.945 303.476 258.558 304.908 259.017C306.237 259.426 307.414 260.345 308.692 260.958C309.255 261.264 309.818 261.519 310.431 261.672C310.994 261.775 311.199 261.979 311.301 262.592Z" fill="#222221"></path><path d="M272.585 286.336C272.073 284.804 271.817 283.425 271.766 281.944C271.664 280.31 271.613 278.727 271.511 277.093C271.511 276.736 271.408 276.328 271.459 276.021C271.971 274.081 271.408 272.191 271.459 270.302C271.459 269.587 271.357 268.872 271.357 268.106C271.306 266.881 271.204 265.604 271.255 264.379C271.255 262.949 271.357 261.519 271.408 260.089C271.408 259.885 271.459 259.63 271.408 259.477C270.743 258.098 270.999 256.566 270.897 255.085C270.846 253.962 270.999 252.992 271.101 251.919C271.152 250.847 271.306 249.622 270.743 248.6C270.539 248.243 270.641 247.681 270.641 247.222C270.539 245.128 270.488 243.034 270.436 240.941C270.436 240.277 270.488 239.613 270.539 238.949C270.539 238.745 270.692 238.541 270.641 238.337C270.027 235.63 270.232 232.822 269.925 230.116C269.823 229.401 269.874 228.635 269.874 227.92C269.823 226.439 269.669 224.907 269.669 223.426C269.669 222.507 269.823 221.588 269.874 220.669C269.925 220.107 269.976 219.443 269.874 218.984C269.362 217.197 269.567 215.358 269.618 213.571C269.618 212.55 269.414 211.478 269.465 210.456C269.516 208.21 269.72 205.963 269.311 203.767C269.158 203.052 269.311 202.184 269.567 201.469C269.72 201.061 270.232 200.703 270.59 200.55C271.101 200.397 271.664 200.754 271.766 201.418C272.022 202.695 272.482 203.92 272.278 205.401C272.022 207.035 272.022 208.72 271.408 210.252C270.897 211.58 271.152 213.061 271.152 214.439C271.152 217.197 271.255 220.005 271.357 222.762C271.511 226.796 271.715 230.779 271.869 234.813C272.022 238.132 272.175 241.452 272.278 244.822C272.278 245.485 272.278 246.149 272.175 246.813C271.869 248.396 272.227 249.877 272.38 251.409C272.482 252.685 272.431 254.013 272.482 255.341C272.482 256.873 272.533 258.404 272.533 259.936C272.585 262.03 272.636 264.072 272.687 266.166C272.738 268.208 272.84 270.251 272.891 272.294C272.891 273.162 272.84 274.081 272.84 274.949C272.84 276.43 272.84 277.859 273.096 279.289C273.352 280.617 273.096 282.047 273.096 283.476C273.096 284.089 273.096 284.702 273.25 285.315C273.198 285.723 273.096 285.978 272.585 286.336Z" fill="#222221"></path><path d="M272.942 329.995C272.43 329.484 272.175 329.024 272.123 328.514C272.021 327.952 271.97 327.442 271.868 326.88C271.868 326.778 271.765 326.625 271.817 326.522C272.328 325.859 271.765 325.246 271.817 324.582C271.817 324.327 271.714 324.071 271.663 323.867C271.612 323.459 271.51 322.999 271.51 322.591C271.51 322.08 271.561 321.62 271.612 321.11C271.612 321.059 271.663 320.957 271.612 320.905C270.947 320.446 271.152 319.935 271.1 319.425C271.049 319.067 271.203 318.71 271.305 318.352C271.356 317.995 271.51 317.586 270.947 317.229C270.742 317.127 270.845 316.923 270.845 316.769C270.742 316.054 270.64 315.34 270.589 314.625C270.589 314.42 270.64 314.165 270.691 313.961C270.691 313.91 270.845 313.808 270.794 313.757C270.129 312.837 270.384 311.918 270.078 310.948C269.975 310.693 270.026 310.438 269.975 310.182C269.873 309.672 269.771 309.161 269.72 308.65C269.72 308.344 269.873 308.038 269.924 307.731C269.975 307.527 270.026 307.323 269.873 307.17C269.362 306.557 269.566 305.944 269.566 305.331C269.566 304.974 269.362 304.616 269.362 304.259C269.413 303.493 269.617 302.727 269.157 301.961C269.003 301.706 269.157 301.399 269.413 301.195C269.566 301.042 270.078 300.94 270.436 300.889C270.947 300.838 271.51 300.94 271.612 301.195C271.868 301.655 272.379 302.012 272.123 302.523C271.868 303.084 271.868 303.646 271.254 304.157C270.742 304.616 271.049 305.076 271.049 305.587C271.049 306.506 271.152 307.476 271.254 308.395C271.407 309.774 271.612 311.101 271.817 312.48C271.97 313.603 272.123 314.727 272.277 315.85C272.328 316.054 272.277 316.31 272.175 316.514C271.868 317.025 272.277 317.535 272.379 318.097C272.481 318.557 272.481 318.965 272.481 319.425C272.533 319.935 272.533 320.446 272.584 321.008C272.635 321.722 272.686 322.386 272.737 323.101C272.788 323.816 272.891 324.48 272.942 325.195C272.942 325.501 272.891 325.808 272.891 326.114C272.891 326.625 272.942 327.084 273.198 327.595C273.453 328.054 273.198 328.514 273.198 329.024C273.198 329.229 273.249 329.433 273.351 329.637C273.556 329.79 273.453 329.893 272.942 329.995Z" fill="#222221"></path><path d="M332.578 284.191C334.471 283.476 336.21 283.119 338.051 283.017L344.086 282.659C344.546 282.608 345.058 282.506 345.467 282.608C347.871 283.323 350.275 282.557 352.679 282.557C353.599 282.557 354.469 282.404 355.389 282.353C356.975 282.251 358.509 282.149 360.095 282.149C361.885 282.149 363.675 282.251 365.516 282.302C365.772 282.302 366.079 282.404 366.283 282.302C366.59 282.149 366.897 281.995 367.204 281.944C367.511 281.842 367.767 281.791 368.074 281.74C368.432 281.23 368.79 280.872 369.25 280.413C369.659 280.004 370.119 279.544 370.529 279.085C371.449 278.064 372.523 277.349 373.546 276.481C374.569 275.613 375.797 274.693 376.155 273.213C376.257 272.753 376.871 272.294 377.28 271.885C379.07 269.945 380.809 268.004 382.65 266.115C383.213 265.502 383.878 264.992 384.543 264.481C384.747 264.328 385.054 264.277 385.156 264.072C386.895 261.06 389.657 258.813 391.754 256.107C392.317 255.392 393.033 254.779 393.647 254.115C394.925 252.736 396.102 251.256 397.431 249.928C398.25 249.111 399.222 248.447 400.142 247.681C400.705 247.222 401.319 246.762 401.625 246.149C402.699 244.056 404.541 242.626 406.177 241.094C407.098 240.226 407.814 239.052 408.786 238.183C410.832 236.243 413.031 234.507 414.565 232.107C415.077 231.341 415.997 230.728 416.867 230.32C417.378 230.064 418.197 230.269 418.708 230.575C419.373 230.933 419.578 231.75 419.117 232.515C418.197 233.894 417.634 235.426 416.1 236.498C414.412 237.673 412.878 239.154 410.934 239.92C409.246 240.583 408.223 242.166 406.996 243.392C404.541 245.843 402.137 248.396 399.784 250.949C396.357 254.626 392.982 258.404 389.606 262.132C386.793 265.196 383.98 268.311 381.116 271.323C380.553 271.936 379.939 272.498 379.223 272.957C377.536 274.081 376.564 275.766 375.285 277.196C374.211 278.421 373.035 279.596 371.858 280.77L368.892 283.783L365.874 283.834C363.266 283.885 360.657 283.987 358.1 284.038C355.543 284.14 352.985 284.293 350.428 284.344C349.303 284.395 348.178 284.293 347.104 284.293C345.262 284.293 343.472 284.344 341.631 284.702C339.994 285.008 338.153 284.702 336.414 284.702C335.647 284.702 334.829 284.753 334.113 284.957C333.396 285.059 333.038 284.957 332.578 284.191Z" fill="black"></path><path d="M353.497 301.808C355.287 301.093 356.975 300.736 358.714 300.634L364.442 300.276C364.851 300.225 365.363 300.123 365.721 300.225C368.023 300.94 370.273 300.174 372.575 300.174C373.444 300.174 374.314 300.021 375.183 299.97C376.513 299.919 377.74 299.817 379.224 299.766L379.633 299.306C380.298 298.591 380.86 298.029 381.474 297.417L383.315 295.63C383.469 295.476 383.776 295.323 383.827 295.119C384.287 293.281 385.77 292.208 386.895 290.83C387.714 289.808 388.737 289.093 389.657 288.276C390.629 287.408 391.754 286.54 392.01 285.059C392.112 284.6 392.675 284.191 393.033 283.732C394.67 281.843 396.255 279.953 397.892 278.064C398.403 277.451 399.017 276.992 399.631 276.43C399.835 276.277 400.142 276.226 400.245 276.021C401.779 273.06 404.336 270.864 406.229 268.209C406.74 267.494 407.405 266.932 407.968 266.217C409.093 264.839 410.218 263.409 411.394 262.081C412.162 261.264 413.082 260.651 413.901 259.885C414.412 259.426 415.026 258.966 415.282 258.405C416.202 256.362 417.89 254.983 419.424 253.452C420.294 252.583 420.908 251.46 421.777 250.592C423.67 248.703 425.664 246.967 427.045 244.618C427.506 243.852 428.375 243.239 429.193 242.881C429.705 242.626 430.472 242.83 430.983 243.086C431.648 243.443 431.904 244.26 431.495 244.975C430.677 246.354 430.216 247.835 428.784 248.907C427.199 250.081 425.818 251.511 423.925 252.277C422.289 252.941 421.419 254.473 420.294 255.647C418.043 258.047 415.844 260.549 413.696 263.051C410.576 266.677 407.507 270.353 404.387 274.03C401.83 277.043 399.273 280.055 396.664 283.068C396.153 283.681 395.59 284.242 394.925 284.702C393.34 285.774 392.47 287.459 391.345 288.889C390.373 290.115 389.299 291.238 388.225 292.361L384.543 296.395L382.548 298.642L381.576 299.766L379.991 301.502L377.689 301.553C375.285 301.655 372.83 301.808 370.426 301.859C369.352 301.91 368.329 301.808 367.255 301.808C365.516 301.808 363.829 301.859 362.09 302.217C360.504 302.523 358.765 302.217 357.128 302.217C356.412 302.217 355.645 302.268 354.98 302.472C354.213 302.676 353.906 302.523 353.497 301.808Z" fill="black"></path><path d="M226.296 308.344C224.097 309.059 222 309.416 219.801 309.519L212.691 309.876C212.129 309.927 211.566 310.029 211.106 309.927C208.293 309.212 205.48 309.978 202.616 309.978C201.542 309.978 200.467 310.131 199.393 310.182C197.552 310.285 195.711 310.387 193.87 310.387C191.773 310.387 189.625 310.285 187.528 310.234C187.221 310.234 186.863 310.131 186.658 310.234C184.612 311.153 182.362 310.846 180.162 310.948C178.526 311.051 177.043 310.795 175.457 310.693C174.894 310.642 174.383 310.591 173.82 310.591C173.258 309.672 172.542 308.855 171.519 308.293C171.007 308.038 170.649 307.272 170.189 306.71C168.348 304.259 166.455 301.808 164.665 299.306C164.103 298.54 163.642 297.621 163.131 296.804C162.977 296.549 162.926 296.191 162.773 295.987C159.755 293.23 157.709 289.655 154.999 286.591C154.641 286.183 154.334 285.774 154.027 285.315L153.566 284.651L153.311 284.345C153.26 284.293 153.26 284.242 153.208 284.242C153.106 284.14 153.004 284.038 152.953 283.936L152.492 284.038H152.441H152.288H151.93L151.265 284.089C150.344 284.14 149.424 284.14 148.554 284.14C147.173 284.14 145.843 283.885 144.462 283.783C143.644 283.732 142.672 283.579 141.956 283.783C139.297 284.498 136.637 284.14 133.926 284.038C132.392 283.987 130.858 284.242 129.323 284.191C125.999 284.089 122.725 283.732 119.401 284.293C118.378 284.447 117.048 284.242 116.025 283.885C115.411 283.681 114.9 282.966 114.695 282.404C114.44 281.689 115.002 280.923 115.974 280.77C117.866 280.464 119.657 279.8 121.856 280.157C124.26 280.566 126.715 280.617 129.016 281.485C130.96 282.251 133.108 281.894 135.205 281.894C139.297 281.996 143.388 281.894 147.531 281.842C149.782 281.791 152.032 281.74 154.283 281.689L161.136 290.727C164.103 294.659 167.069 298.54 170.036 302.472C170.598 303.238 171.161 304.106 171.57 304.974C172.03 305.944 172.593 306.761 173.207 307.527L173.667 308.089L173.923 308.395L174.025 308.548L174.076 308.599L174.127 308.651L174.69 309.161L175.099 309.11L175.457 309.059H175.508H175.61H175.815H176.173L177.605 309.008C178.577 309.008 179.549 309.008 180.521 308.957L187.323 308.855C190.392 308.804 193.46 308.702 196.478 308.651C199.496 308.548 202.513 308.446 205.531 308.344C206.861 308.293 208.139 308.395 209.469 308.395C211.617 308.395 213.714 308.344 215.914 307.987C217.857 307.68 220.005 307.987 222.102 307.987C223.023 307.987 223.944 307.936 224.813 307.731C225.376 307.476 225.734 307.629 226.296 308.344Z" fill="black"></path><path d="M221.181 327.697C219.033 328.412 217.039 328.77 214.942 328.872L208.037 329.229C207.525 329.28 206.963 329.382 206.503 329.28C203.741 328.565 201.03 329.331 198.319 329.331C197.296 329.331 196.273 329.484 195.199 329.535C193.409 329.638 191.619 329.74 189.88 329.74C187.834 329.74 185.788 329.638 183.742 329.587C183.436 329.587 183.078 329.484 182.873 329.587C180.878 330.506 178.73 330.199 176.582 330.301C174.996 330.404 173.564 330.148 172.03 330.046C171.467 329.995 170.956 329.944 170.393 329.944C169.78 329.127 169.064 328.31 168.041 327.85C167.529 327.646 167.12 326.88 166.711 326.37C164.818 324.072 162.875 321.825 160.982 319.476C160.369 318.761 159.908 317.944 159.346 317.127C159.192 316.872 159.141 316.514 158.937 316.361C155.868 313.859 153.72 310.489 150.958 307.681C150.242 306.966 149.628 306.047 148.963 305.281C147.582 303.647 146.099 302.064 144.769 300.43L144.616 300.276L144.565 300.225C144.565 300.174 144.513 300.174 144.513 300.123C144.462 300.072 144.462 299.97 144.411 299.868C144.309 299.817 144.207 299.817 144.104 299.766L144.002 299.715C144.002 299.715 144.002 299.715 143.951 299.715H143.797L143.235 299.664C142.416 299.613 141.496 299.51 140.78 299.715C138.222 300.481 135.614 300.174 133.006 300.123C131.522 300.072 130.039 300.43 128.556 300.379C125.334 300.327 122.163 300.021 118.991 300.685C117.969 300.889 116.741 300.685 115.718 300.327C115.104 300.123 114.593 299.408 114.439 298.898C114.184 298.183 114.695 297.417 115.667 297.264C117.508 296.906 119.196 296.242 121.344 296.549C123.646 296.906 126.05 296.906 128.249 297.723C130.141 298.438 132.238 298.03 134.233 298.03C137.967 298.03 141.751 297.876 145.434 297.774L145.843 298.285C149.526 302.676 153.259 307.017 156.942 311.408C160.011 315.034 163.079 318.659 166.097 322.336C166.711 323.05 167.273 323.867 167.683 324.684C168.143 325.604 168.757 326.37 169.37 327.084C169.677 327.442 170.035 327.799 170.342 328.106L170.905 328.565L171.314 328.514L171.672 328.463L172.337 328.412L173.718 328.361C174.638 328.361 175.61 328.361 176.531 328.31L183.078 328.208C186.044 328.157 189.011 328.055 191.926 328.004C194.841 327.901 197.757 327.799 200.672 327.697C201.951 327.646 203.229 327.748 204.457 327.748C206.554 327.748 208.6 327.697 210.697 327.34C212.589 327.033 214.686 327.34 216.681 327.34C217.55 327.34 218.471 327.289 219.289 327.084C220.261 326.88 220.67 326.982 221.181 327.697Z" fill="black"></path><path d="M312.989 216.329C313.04 215.256 313.296 214.439 313.756 213.725L315.291 211.478C315.393 211.325 315.444 211.069 315.649 211.018C316.876 210.712 317.03 209.384 317.797 208.669C318.053 208.363 318.257 208.005 318.462 207.648C318.871 207.086 319.229 206.474 319.741 205.963C320.252 205.35 320.917 204.84 321.479 204.278C321.582 204.176 321.735 204.176 321.684 204.023C321.531 202.848 322.298 202.389 322.758 201.725C323.116 201.214 323.679 200.959 324.139 200.601C324.599 200.244 325.213 199.886 325.009 198.916C324.957 198.61 325.264 198.457 325.418 198.252L325.725 197.844L325.878 197.64L325.98 197.538L326.032 197.435L326.441 196.823L326.39 196.312C326.39 196.159 326.338 196.057 326.338 195.75C326.287 195.393 326.441 195.035 326.492 194.627C326.492 194.525 326.696 194.372 326.645 194.321C325.725 192.84 326.083 191.257 325.622 189.776C325.52 189.367 325.571 188.959 325.52 188.55C325.418 187.733 325.213 186.865 325.162 186.048C325.162 185.538 325.367 185.027 325.469 184.516C325.52 184.21 325.622 183.853 325.418 183.546C324.651 182.576 324.957 181.555 325.009 180.534C325.06 179.972 324.702 179.359 324.753 178.797C324.804 177.572 325.111 176.295 324.446 175.07C324.241 174.661 324.446 174.202 324.804 173.793C325.009 173.538 325.725 173.385 326.236 173.283C326.952 173.181 327.719 173.385 327.873 173.742C328.231 174.457 328.896 175.121 328.589 175.938C328.231 176.857 328.231 177.776 327.412 178.644C326.696 179.359 327.106 180.176 327.106 180.942C327.106 182.474 327.259 184.006 327.412 185.589C327.668 187.836 327.924 190.031 328.231 192.278L328.538 194.678L328.691 195.904L328.845 197.64L328.231 198.457C328.128 198.559 328.077 198.661 327.975 198.763C327.873 198.865 327.77 198.967 327.719 199.018C327.566 199.121 327.412 199.223 327.259 199.325C326.39 199.682 326.185 200.652 325.725 201.418C325.367 202.031 324.804 202.542 324.344 203.154L322.707 205.146C321.991 206.065 321.275 206.933 320.559 207.852C319.843 208.771 319.229 209.691 318.513 210.559C318.206 210.967 317.797 211.273 317.49 211.631C316.928 212.244 316.416 212.856 316.16 213.673C315.905 214.439 315.137 214.797 314.575 215.41C314.37 215.665 314.114 215.971 314.063 216.329C313.859 216.635 313.654 216.686 312.989 216.329Z" fill="black"></path><path d="M324.65 223.018C324.65 221.843 324.906 220.924 325.366 220.107L326.901 217.452C327.003 217.248 327.054 216.992 327.259 216.89C328.538 216.329 328.64 214.899 329.407 213.98C329.714 213.622 329.816 213.163 330.072 212.754C330.481 212.09 330.839 211.375 331.351 210.763C331.913 210.048 332.527 209.384 333.09 208.669C333.192 208.567 333.345 208.516 333.294 208.363C333.09 207.086 333.908 206.524 334.368 205.707C334.726 205.095 335.289 204.737 335.749 204.278C336.261 203.767 336.874 203.308 336.619 202.286C336.516 201.98 336.874 201.725 337.028 201.469L339.023 198.252C339.074 198.15 339.125 198.099 339.227 197.997C339.278 197.844 339.329 197.691 339.381 197.486C339.381 197.384 339.585 197.282 339.534 197.18C338.613 195.495 338.971 193.708 338.511 192.023C338.409 191.563 338.46 191.103 338.409 190.644C338.306 189.725 338.102 188.755 338.051 187.835C338.051 187.274 338.255 186.661 338.358 186.099C338.409 185.742 338.511 185.333 338.306 185.027C337.539 183.904 337.846 182.729 337.897 181.606C337.948 180.942 337.59 180.278 337.642 179.665C337.693 178.236 338 176.857 337.335 175.427C337.13 174.968 337.335 174.406 337.693 173.997C337.897 173.742 338.613 173.487 339.125 173.436C339.841 173.334 340.608 173.538 340.761 173.997C341.12 174.814 341.784 175.58 341.478 176.499C341.12 177.521 341.12 178.593 340.301 179.563C339.585 180.38 339.994 181.299 339.994 182.219C339.994 183.955 340.148 185.742 340.301 187.478C340.557 190.031 340.813 192.533 341.12 195.086L341.273 196.823L341.324 197.231L341.375 197.691L341.478 198.865L340.966 199.682L340.71 200.091L340.506 200.397L339.739 201.622C339.534 201.98 339.227 202.286 338.869 202.542C337.948 203.103 337.795 204.176 337.335 205.044C336.977 205.81 336.414 206.422 335.954 207.137L334.317 209.537C333.601 210.61 332.834 211.733 332.169 212.805C331.453 213.878 330.839 215.001 330.123 216.073C329.816 216.533 329.407 216.941 329.049 217.401C328.486 218.116 327.975 218.882 327.719 219.852C327.463 220.72 326.645 221.231 326.134 221.945C325.929 222.252 325.673 222.609 325.622 223.018C325.571 223.222 325.366 223.273 324.65 223.018Z" fill="black"></path><path d="M206.298 243.801C205.071 244.515 203.946 244.873 202.769 244.975L198.882 245.332C198.575 245.384 198.268 245.486 198.013 245.384C196.478 244.669 194.944 245.435 193.358 245.435C192.796 245.435 192.182 245.588 191.619 245.639C190.596 245.741 189.625 245.843 188.602 245.843C187.425 245.843 186.3 245.741 185.124 245.69C184.97 245.69 184.766 245.588 184.612 245.69C183.538 246.558 182.413 246.354 181.134 246.405L180.981 246.303C180.623 245.996 180.265 245.588 180.009 245.281C179.753 244.924 179.498 244.567 179.242 244.26C178.679 243.596 178.168 242.728 176.992 242.728C176.633 242.728 176.378 242.32 176.071 242.064C174.792 240.941 173.514 239.869 172.235 238.745C171.826 238.388 171.519 237.928 171.212 237.52C171.11 237.367 171.11 237.111 170.956 237.06C168.808 236.192 167.427 234.354 165.535 233.128C165.023 232.822 164.665 232.311 164.205 231.954C163.284 231.188 162.261 230.473 161.392 229.656C160.829 229.146 160.471 228.431 160.011 227.869C159.704 227.512 159.448 227.052 158.988 226.899C157.454 226.388 156.584 225.163 155.612 224.09C155.05 223.478 154.231 223.12 153.669 222.507C152.441 221.18 151.367 219.699 149.628 218.882C149.066 218.627 148.759 217.963 148.554 217.35C148.452 216.993 148.759 216.278 149.066 215.818C149.475 215.205 150.191 214.899 150.702 215.154C151.674 215.665 152.851 215.818 153.464 216.89C154.129 218.065 155.101 219.035 155.408 220.516C155.664 221.792 156.789 222.303 157.556 223.12C159.142 224.703 160.829 226.184 162.517 227.665C164.972 229.809 167.478 231.852 169.984 233.997C172.03 235.733 174.076 237.469 176.122 239.256C176.531 239.613 176.889 240.022 177.145 240.481C177.759 241.656 178.986 242.167 180.009 242.881C180.418 243.188 180.827 243.545 181.185 243.903L181.595 244.311L181.85 244.515L182.26 244.464H182.362H182.413H182.515H182.976L184.817 244.413C186.505 244.362 188.141 244.26 189.829 244.209C191.466 244.107 193.103 243.954 194.79 243.903C195.506 243.852 196.222 243.954 196.939 243.954C198.115 243.954 199.291 243.903 200.468 243.545C201.542 243.239 202.718 243.545 203.843 243.545C204.355 243.545 204.866 243.494 205.326 243.29C205.787 242.933 205.991 243.086 206.298 243.801Z" fill="black"></path><path d="M214.533 225.316C213.356 226.031 212.282 226.388 211.157 226.491L207.474 226.848C207.219 226.899 206.912 227.001 206.656 226.899C205.173 226.184 203.741 226.95 202.258 226.95C201.695 226.95 201.132 227.103 200.621 227.154C199.649 227.256 198.729 227.359 197.757 227.359C196.683 227.359 195.557 227.256 194.483 227.205C194.33 227.205 194.125 227.103 194.023 227.205C192.949 228.125 191.824 227.818 190.647 227.92C189.778 228.022 189.011 227.767 188.192 227.665C187.886 227.614 187.579 227.563 187.272 227.563C187.067 227.359 186.914 227.205 186.658 227.103C186.402 227.001 186.095 226.899 185.737 226.899C185.379 226.899 185.124 226.491 184.868 226.286C183.64 225.265 182.413 224.193 181.237 223.171C180.879 222.814 180.572 222.405 180.265 221.997C180.162 221.895 180.162 221.64 180.06 221.588C177.963 220.771 176.685 219.035 174.894 217.861C174.434 217.554 174.076 217.095 173.616 216.737C172.746 216.023 171.774 215.359 170.956 214.542C170.445 214.082 170.087 213.367 169.677 212.806C169.422 212.448 169.166 212.04 168.706 211.887C167.222 211.427 166.404 210.252 165.484 209.231C164.921 208.67 164.154 208.312 163.642 207.75C162.466 206.474 161.443 205.095 159.806 204.329C159.295 204.074 158.937 203.461 158.835 202.848C158.732 202.491 159.039 201.776 159.346 201.316C159.755 200.704 160.471 200.397 160.983 200.602C161.954 201.061 163.08 201.214 163.642 202.236C164.256 203.359 165.177 204.278 165.432 205.708C165.637 206.933 166.711 207.444 167.478 208.21C168.961 209.691 170.598 211.121 172.184 212.499C174.536 214.491 176.889 216.482 179.293 218.423C181.237 220.057 183.18 221.691 185.124 223.376C185.482 223.682 185.84 224.091 186.095 224.55C186.351 225.061 186.709 225.418 187.118 225.725C187.374 225.929 187.476 225.929 187.579 225.98C187.732 226.031 187.834 226.082 187.937 226.133C188.039 226.082 188.141 226.082 188.192 226.031C188.346 225.98 188.448 225.98 188.55 225.929C188.806 225.929 189.062 225.878 189.318 225.878L190.801 225.827L194.33 225.725C195.915 225.673 197.501 225.571 199.087 225.52C200.621 225.418 202.206 225.265 203.741 225.214C204.406 225.163 205.122 225.265 205.787 225.265C206.912 225.265 207.986 225.214 209.111 224.856C210.134 224.55 211.259 224.856 212.282 224.856C212.743 224.856 213.254 224.805 213.663 224.601C214.021 224.448 214.226 224.55 214.533 225.316Z" fill="black"></path><path d="M261.332 405.006C261.127 404.955 260.922 404.853 260.667 404.802C260.002 404.598 259.593 405.057 259.541 405.568C259.03 405.67 258.518 405.721 257.956 405.721C256.984 405.721 256.012 405.772 255.092 405.925C252.79 406.385 250.642 407.202 248.392 407.764C246.857 408.121 245.272 408.376 243.686 408.53C242.305 406.079 240.924 403.577 239.594 401.074C239.85 399.287 240.208 397.551 240.617 395.764C241.18 393.364 241.896 391.015 242.97 388.819C243.482 387.747 241.896 386.777 241.333 387.9C239.748 391.168 238.827 394.743 238.162 398.317C237.549 397.092 236.935 395.815 236.372 394.538C235.298 392.138 234.633 389.585 233.713 387.185C233.866 387.032 233.968 386.828 233.968 386.522C233.968 386.062 233.559 385.551 233.048 385.602C232.843 385.602 232.639 385.653 232.485 385.653C231.718 385.756 231.36 386.368 231.667 387.083C232.741 389.534 233.303 392.138 234.378 394.589C235.4 396.938 236.526 399.236 237.702 401.483C237.497 402.913 237.242 404.394 237.037 405.823C235.963 405.211 234.889 404.598 233.815 403.934C232.587 403.219 231.411 402.402 230.184 401.738C229.263 401.228 228.291 400.819 227.37 400.36C226.245 399.849 225.12 399.287 224.097 398.572C223.279 398.011 222.46 397.296 222.154 396.275C221.796 395.151 220.005 395.611 220.363 396.785C221.028 398.93 223.074 400.206 224.915 401.228C226.961 402.3 229.109 403.219 231.104 404.445C232.997 405.568 234.889 406.691 236.833 407.764C236.781 408.274 236.679 408.734 236.628 409.245C235.861 409.347 235.094 409.5 234.326 409.653C232.178 410.113 230.081 411.032 227.882 411.134C227.831 411.134 227.729 411.134 227.626 411.134C227.422 411.134 227.166 411.134 226.961 411.134C225.734 411.185 225.785 412.921 226.961 413.023C229.263 413.125 231.411 412.359 233.61 411.798C234.531 411.542 235.452 411.389 236.372 411.236C236.219 412.462 236.116 413.687 236.065 414.913C235.912 417.619 235.861 420.274 235.861 422.981C235.861 422.981 235.861 422.981 235.861 423.032C235.861 423.236 235.861 423.44 235.861 423.644C235.861 424.87 237.753 424.87 237.753 423.644C237.753 419.406 237.855 415.168 238.316 410.981C239.185 410.879 240.055 410.776 240.924 410.725C241.385 410.674 241.845 410.623 242.305 410.623C242.51 410.725 242.663 410.776 242.868 410.879C243.84 412.564 244.811 414.3 245.732 415.985C247.011 418.232 248.289 420.427 249.721 422.572C249.363 423.185 249.824 424.257 250.744 424.002C250.949 423.951 251.153 423.9 251.307 423.849C251.869 423.695 252.228 422.981 251.87 422.47C249.568 419.151 247.624 415.627 245.681 412.053C246.908 412.513 248.187 412.921 249.466 413.33C251.256 413.84 253.046 414.198 254.836 414.759C255.91 415.117 256.882 415.627 257.854 416.189C258.007 416.547 258.365 416.751 258.723 416.802C258.928 416.802 259.132 416.853 259.337 416.853C260.257 416.955 260.615 415.525 259.797 415.117C258.621 414.504 257.547 413.84 256.319 413.33C254.938 412.768 253.455 412.462 251.972 412.104C249.977 411.593 248.034 410.981 246.09 410.266C246.755 410.164 247.42 410.062 248.085 409.908C250.437 409.449 252.688 408.581 255.041 408.019C256.166 407.764 257.189 407.764 258.365 407.713C259.541 407.662 260.667 407.508 261.638 406.845C262.201 406.232 262.099 405.262 261.332 405.006ZM239.134 404.291C239.799 405.517 240.464 406.794 241.18 408.019C240.362 407.611 239.594 407.202 238.776 406.794C238.93 405.925 239.032 405.108 239.134 404.291ZM238.469 409.04C238.469 408.938 238.469 408.836 238.52 408.734C238.674 408.836 238.827 408.887 238.981 408.989C238.827 408.989 238.623 409.04 238.469 409.04Z" fill="#1C1C1B"></path><path d="M456.71 222.865C457.017 222.865 457.273 222.865 457.58 222.814C458.449 222.763 458.705 222.048 458.552 221.384C459.063 221.026 459.677 220.771 460.291 220.516C461.416 220.056 462.49 219.648 463.513 218.984C465.917 217.452 468.116 215.512 470.469 213.878C472.105 212.754 473.793 211.835 475.532 210.916C478.243 213.163 480.902 215.41 483.562 217.707C484.022 219.903 484.432 222.048 484.738 224.243C485.148 227.256 485.352 230.32 485.096 233.333C484.943 234.813 487.245 235.171 487.398 233.69C487.807 229.197 487.296 224.652 486.426 220.261C487.705 221.435 488.932 222.609 490.16 223.835C492.461 226.133 494.354 228.737 496.553 231.137C496.451 231.392 496.4 231.699 496.502 232.005C496.707 232.567 497.423 232.975 497.985 232.669C498.19 232.567 498.394 232.465 498.65 232.362C499.468 231.954 499.622 231.035 498.957 230.371C496.655 228.022 494.814 225.265 492.513 222.916C490.262 220.669 487.961 218.524 485.608 216.38C485.25 214.593 484.841 212.856 484.432 211.069C485.966 211.273 487.5 211.529 489.035 211.784C490.774 212.09 492.461 212.499 494.2 212.703C495.479 212.856 496.758 212.907 498.036 213.01C499.571 213.112 501.105 213.265 502.588 213.673C503.765 213.98 505.095 214.439 505.862 215.461C506.782 216.635 508.675 215.256 507.754 214.082C506.066 211.886 503.1 211.273 500.543 210.967C497.678 210.61 494.814 210.507 492.001 209.997C489.342 209.486 486.631 209.027 483.92 208.669C483.767 208.056 483.613 207.495 483.46 206.882C484.278 206.422 485.096 205.912 485.915 205.401C488.216 203.92 490.211 201.98 492.717 200.857C492.819 200.857 492.922 200.806 492.973 200.754C493.229 200.652 493.484 200.55 493.74 200.448C495.121 199.886 494.303 197.844 492.922 198.303C490.211 199.172 488.063 201.061 485.812 202.695C484.892 203.359 483.869 203.971 482.897 204.584C482.488 203.103 482.079 201.623 481.619 200.142C480.647 196.976 479.47 193.81 478.294 190.695C478.294 190.695 478.294 190.695 478.294 190.644C478.192 190.389 478.089 190.184 478.038 189.929C477.527 188.55 475.328 189.367 475.89 190.746C477.783 195.648 479.522 200.601 480.851 205.657C479.88 206.167 478.959 206.627 477.987 207.086C477.476 207.342 476.964 207.597 476.453 207.852C476.197 207.852 475.941 207.852 475.686 207.801C473.793 206.269 471.952 204.737 470.059 203.154C467.604 201.112 465.149 199.172 462.541 197.333C462.694 196.465 461.671 195.444 460.7 196.159C460.495 196.312 460.291 196.465 460.086 196.618C459.523 197.027 459.421 198.048 460.035 198.457C464.178 201.265 468.014 204.482 471.85 207.75C470.213 207.75 468.576 207.801 466.94 207.954C464.689 208.159 462.388 208.567 460.137 208.669C458.756 208.771 457.375 208.567 456.045 208.363C455.739 208.005 455.227 207.954 454.767 208.056C454.511 208.108 454.306 208.159 454.051 208.261C452.926 208.567 453.181 210.354 454.255 210.507C455.841 210.712 457.426 210.967 459.063 211.018C460.904 211.069 462.797 210.712 464.638 210.507C467.195 210.201 469.701 210.048 472.259 210.048C471.543 210.456 470.776 210.865 470.111 211.324C467.604 212.907 465.354 214.899 462.899 216.584C461.723 217.401 460.495 217.861 459.216 218.371C457.887 218.933 456.659 219.597 455.841 220.822C455.125 221.843 455.687 222.916 456.71 222.865ZM482.693 213.878C481.363 212.754 480.033 211.58 478.703 210.456C479.828 210.559 480.902 210.661 482.028 210.814C482.232 211.835 482.437 212.856 482.693 213.878ZM481.363 208.108C481.414 208.21 481.414 208.363 481.465 208.465C481.26 208.465 481.056 208.414 480.851 208.414C480.954 208.261 481.158 208.21 481.363 208.108Z" fill="#1C1C1B"></path><path d="M74.3922 323.663C74.3411 323.357 74.3411 323.101 74.2899 322.795C74.1876 321.978 73.4204 321.723 72.8067 321.978C72.3975 321.467 72.0906 320.906 71.7838 320.344C71.2212 319.272 70.7097 318.25 69.9425 317.28C68.1524 315.033 66.0554 313.042 64.2141 310.846C62.9355 309.365 61.8614 307.731 60.7874 306.097C62.7821 303.187 64.7768 300.327 66.8226 297.468C68.9707 296.804 71.0677 296.191 73.267 295.68C76.2335 294.966 79.2511 294.506 82.3199 294.455C83.8031 294.455 83.9566 292.106 82.4733 292.157C77.9213 292.208 73.4716 293.127 69.1242 294.404C70.1471 293.025 71.2212 291.698 72.2952 290.37C74.3411 287.868 76.7961 285.723 78.9954 283.323C79.2511 283.425 79.558 283.425 79.8649 283.272C80.3763 283.017 80.7344 282.251 80.3763 281.74C80.2229 281.536 80.1206 281.332 79.9672 281.128C79.4557 280.362 78.5351 280.311 77.9725 281.025C75.8243 283.527 73.267 285.621 71.17 288.123C69.1242 290.523 67.2318 293.025 65.3394 295.578C63.6004 296.14 61.8614 296.702 60.1736 297.263C60.2247 295.732 60.327 294.2 60.4805 292.617C60.6339 290.881 60.8385 289.144 60.8896 287.408C60.9408 286.132 60.8385 284.855 60.8385 283.527C60.8385 281.996 60.8385 280.464 61.0431 278.932C61.1965 277.706 61.5545 276.379 62.4752 275.511C63.5492 274.489 62.0149 272.753 60.9408 273.774C58.9461 275.664 58.5881 278.625 58.5369 281.281C58.4346 284.14 58.6392 287 58.3835 289.859C58.1278 292.566 57.9743 295.323 57.8209 298.029C57.2583 298.234 56.6445 298.438 56.0819 298.642C55.5193 297.876 54.9567 297.11 54.3941 296.344C52.7063 294.2 50.5581 292.412 49.2283 290.012C49.2283 289.91 49.1772 289.859 49.126 289.757C48.9726 289.502 48.8703 289.247 48.7169 289.042C48.0008 287.715 46.0573 288.685 46.6199 290.064C47.7451 292.668 49.8421 294.608 51.6833 296.753C52.4505 297.621 53.1666 298.54 53.8315 299.51C52.3994 300.021 50.9673 300.583 49.5352 301.195C46.4664 302.472 43.4488 303.902 40.4312 305.382C40.4312 305.382 40.4312 305.382 40.38 305.382C40.1755 305.485 39.9197 305.587 39.7151 305.74C38.3853 306.404 39.4083 308.497 40.7381 307.833C45.4435 305.485 50.2001 303.289 55.1101 301.502C55.6727 302.421 56.2865 303.289 56.8491 304.208C57.156 304.668 57.4629 305.178 57.7186 305.638C57.7186 305.893 57.7186 306.148 57.7697 306.404C56.3888 308.395 55.059 310.438 53.678 312.429C51.8879 315.033 50.149 317.689 48.5634 320.446C47.6428 320.395 46.7733 321.518 47.5405 322.386C47.6939 322.591 47.8474 322.744 48.052 322.948C48.5123 323.459 49.5352 323.459 49.8932 322.795C52.2971 318.404 55.1613 314.318 58.0255 310.182C58.1789 311.816 58.4346 313.45 58.6904 315.033C59.0995 317.28 59.7133 319.476 60.0713 321.723C60.2759 323.101 60.2247 324.48 60.1736 325.859C59.8667 326.216 59.8156 326.727 59.969 327.135C60.0713 327.391 60.1225 327.595 60.2247 327.85C60.6339 328.922 62.424 328.514 62.424 327.391C62.4752 325.808 62.5775 324.174 62.4752 322.591C62.3217 320.752 61.8103 318.914 61.4523 317.127C60.9408 314.625 60.5316 312.123 60.2759 309.621C60.7362 310.336 61.2477 310.999 61.7591 311.663C63.6004 314.012 65.7997 316.055 67.6921 318.352C68.6127 319.425 69.1753 320.599 69.8402 321.825C70.5051 323.101 71.3235 324.276 72.6021 324.94C73.4716 325.297 74.4945 324.684 74.3922 323.663ZM62.9355 298.693C61.9126 300.123 60.9408 301.553 59.9179 302.982C59.9179 301.859 59.9179 300.787 59.969 299.663C60.9408 299.357 61.9637 299.051 62.9355 298.693ZM57.2583 300.583C57.3606 300.531 57.4629 300.48 57.6163 300.48C57.6163 300.685 57.6163 300.889 57.6163 301.144C57.514 300.94 57.4117 300.736 57.2583 300.583Z" fill="#1C1C1B"></path><path d="M436.507 357.467C437.223 359.05 438.911 360.122 440.547 360.684C442.133 361.245 444.434 361.603 445.662 360.071C446.838 358.59 446.173 356.088 444.741 354.965C443.463 353.943 441.672 354.046 440.292 354.658C438.706 355.373 437.479 356.548 436.609 358.028C436.251 358.692 435.944 359.458 435.893 360.224C435.842 360.633 435.842 361.092 435.944 361.552C435.995 361.807 436.046 362.113 436.149 362.369C436.302 362.777 436.66 363.033 437.018 363.288C438.911 364.462 441.11 364.564 443.053 363.492C444.792 362.471 445.713 360.479 445.56 358.488C445.508 357.671 445.304 356.701 444.486 356.292C444.025 356.088 443.514 355.986 443.053 355.986C441.928 355.935 440.905 356.19 439.934 356.803C438.246 357.824 437.325 360.122 438.808 361.756C439.269 362.216 439.78 362.573 440.394 362.879C441.008 363.135 441.775 362.982 442.184 362.471C442.593 361.96 442.951 361.501 443.36 360.99C443.821 360.377 443.769 359.356 443.105 358.896C442.44 358.437 441.519 358.488 441.008 359.152C440.598 359.662 440.24 360.122 439.831 360.633C440.445 360.479 441.008 360.326 441.621 360.224C441.519 360.173 441.417 360.122 441.314 360.071C441.059 359.969 441.468 360.173 441.314 360.071C441.263 360.02 441.161 359.969 441.11 359.918C440.854 359.714 441.212 359.969 441.161 360.02C441.11 360.02 440.803 359.509 441.008 359.816C441.161 360.071 441.059 359.867 441.008 359.816C440.956 359.56 441.008 360.224 441.059 359.969C441.059 359.969 441.059 359.816 441.059 359.765C441.059 359.765 441.11 360.173 441.059 359.918C441.059 359.867 441.11 359.816 441.11 359.765C441.161 359.969 441.008 360.071 441.11 359.867C441.11 359.816 441.161 359.765 441.161 359.714C441.212 359.611 440.905 360.02 441.11 359.816C441.161 359.765 441.366 359.56 441.366 359.509C441.366 359.56 441.059 359.765 441.263 359.611C441.314 359.56 441.366 359.509 441.417 359.509L441.826 359.254C441.826 359.254 441.417 359.458 441.724 359.305C441.775 359.254 441.826 359.254 441.928 359.203C442.082 359.152 442.286 359.101 442.389 359.05C442.286 359.101 442.031 359.101 442.286 359.101C442.337 359.101 442.44 359.101 442.491 359.05C442.593 359.05 442.644 359.05 442.747 359.05C442.798 359.05 443.053 359.05 442.798 359.05C442.542 359.05 442.798 359.05 442.849 359.05C442.951 359.05 443.002 359.05 443.105 359.101C443.156 359.101 443.309 359.152 443.36 359.152C443.207 359.152 443.053 359.05 443.309 359.152C443.053 358.896 442.798 358.59 442.542 358.335C442.593 358.488 442.593 358.488 442.542 358.233C442.542 358.284 442.593 358.386 442.593 358.437C442.593 358.539 442.644 358.641 442.644 358.743C442.644 358.845 442.644 358.948 442.644 359.05C442.644 359.101 442.644 359.152 442.644 359.254C442.644 359.407 442.644 359.356 442.644 359.152C442.593 359.254 442.593 359.56 442.593 359.714C442.542 359.867 442.44 360.071 442.593 359.714C442.542 359.765 442.542 359.867 442.491 359.969C442.44 360.173 442.286 360.326 442.235 360.479C442.337 360.173 442.337 360.326 442.235 360.428C442.184 360.479 442.133 360.582 442.082 360.633C442.03 360.684 441.979 360.786 441.877 360.837C441.672 361.041 442.133 360.633 441.928 360.786C441.775 360.888 441.621 361.041 441.468 361.143C441.161 361.348 441.519 361.143 441.519 361.092C441.519 361.092 441.263 361.245 441.212 361.245C441.059 361.296 440.905 361.348 440.752 361.399C440.496 361.501 441.161 361.348 440.752 361.399C440.65 361.399 440.598 361.45 440.496 361.45C440.394 361.45 440.343 361.45 440.24 361.45C440.189 361.45 440.138 361.45 440.087 361.45C439.934 361.45 439.985 361.45 440.24 361.45C440.087 361.399 439.882 361.399 439.729 361.399C439.678 361.399 439.473 361.296 439.371 361.348C439.575 361.399 439.627 361.45 439.524 361.399C439.473 361.399 439.422 361.348 439.371 361.348C439.166 361.296 438.962 361.194 438.757 361.092C438.706 361.092 438.655 361.041 438.655 361.041C438.553 360.99 438.604 360.99 438.757 361.092C438.706 361.092 438.501 360.888 438.399 360.837C438.553 361.041 438.706 361.245 438.859 361.45C438.757 361.143 438.859 361.603 438.859 361.501C438.859 361.45 438.808 361.348 438.808 361.296C438.808 361.143 438.808 360.939 438.757 360.786C438.808 360.939 438.706 361.143 438.757 360.888C438.757 360.786 438.757 360.735 438.808 360.633C438.808 360.582 438.808 360.479 438.859 360.428C438.859 360.377 438.962 360.02 438.859 360.275C438.757 360.531 438.859 360.275 438.859 360.224C438.911 360.122 438.911 360.071 438.962 359.969C439.013 359.816 439.115 359.662 439.166 359.509C439.166 359.458 439.217 359.407 439.217 359.356C439.217 359.356 439.013 359.662 439.115 359.509C439.166 359.458 439.217 359.407 439.217 359.305C439.32 359.152 439.422 358.999 439.576 358.845C439.678 358.743 439.78 358.59 439.882 358.488C439.934 358.437 440.138 358.233 439.934 358.437C439.729 358.641 439.985 358.386 440.036 358.335C440.292 358.131 440.547 357.926 440.854 357.722C440.905 357.671 441.008 357.62 441.059 357.569C441.212 357.467 440.854 357.671 440.854 357.671C440.905 357.671 440.956 357.62 440.956 357.62C441.11 357.569 441.263 357.467 441.417 357.416C441.57 357.365 441.672 357.314 441.826 357.262C441.979 357.211 442.133 357.262 441.724 357.262C441.775 357.262 441.877 357.211 441.928 357.211C442.082 357.211 442.184 357.16 442.337 357.16C442.389 357.16 442.695 357.16 442.389 357.16C442.082 357.16 442.389 357.16 442.44 357.16C442.491 357.16 442.542 357.16 442.593 357.211C442.849 357.262 442.593 357.262 442.491 357.16C442.593 357.211 442.747 357.314 442.849 357.314C442.747 357.262 442.542 357.058 442.747 357.262C442.798 357.314 442.849 357.314 442.9 357.365C443.105 357.518 442.695 357.109 442.798 357.262C442.849 357.314 442.9 357.365 442.951 357.416C443.002 357.467 443.002 357.569 443.053 357.62C442.951 357.518 442.9 357.262 443.002 357.518C443.053 357.62 443.053 357.671 443.105 357.773C443.105 357.824 443.207 358.182 443.156 357.926C443.105 357.671 443.156 357.977 443.156 358.028C443.156 358.131 443.156 358.233 443.207 358.284C443.258 358.488 443.258 357.977 443.207 358.182C443.207 358.233 443.207 358.284 443.207 358.284C443.207 358.437 443.258 358.131 443.258 358.079C443.207 358.131 443.207 358.233 443.207 358.284C443.207 358.335 443.411 357.977 443.309 358.131C443.156 358.335 443.565 357.977 443.411 358.028C443.36 358.028 443.258 358.131 443.207 358.131C443.258 358.028 443.616 357.977 443.36 358.028C443.309 358.028 443.207 358.079 443.156 358.079C443.105 358.131 443.565 358.028 443.309 358.028C443.207 358.028 443.156 358.028 443.053 358.079C442.951 358.079 442.9 358.079 442.798 358.079C442.542 358.079 443.156 358.131 442.9 358.079C442.747 358.028 442.542 358.028 442.389 358.028C442.184 357.977 441.979 357.875 441.775 357.875C441.775 357.875 442.082 357.977 441.928 357.926C441.877 357.926 441.826 357.875 441.775 357.875C441.672 357.824 441.57 357.824 441.468 357.773C441.059 357.62 440.701 357.365 440.292 357.211C440.292 357.211 440.547 357.365 440.445 357.314C440.394 357.262 440.343 357.262 440.292 357.211C440.189 357.16 440.087 357.109 440.036 357.007C439.882 356.905 439.729 356.752 439.576 356.65C439.524 356.599 439.524 356.548 439.473 356.548C439.524 356.548 439.729 356.803 439.576 356.65C439.524 356.599 439.473 356.497 439.422 356.445C439.371 356.394 439.32 356.343 439.269 356.241C439.115 355.986 439.422 356.599 439.32 356.292C439.013 355.577 438.143 355.118 437.376 355.424C436.609 355.884 436.149 356.752 436.507 357.467Z" fill="#1C1C1B"></path><path d="M86.0539 203.359C86.105 203.665 86.105 203.972 86.1561 204.227C87.1279 204.074 88.0997 203.972 89.0715 203.818C88.918 203.41 88.7135 203.001 88.4577 202.644C88.1508 202.184 87.7928 201.878 87.3837 201.572C86.7699 201.112 86.0027 200.857 85.2355 200.857C84.4172 200.857 83.5477 201.163 82.9851 201.776C82.269 202.44 82.0133 203.41 81.911 204.329C81.8599 204.686 81.911 204.993 82.1156 205.299C82.3202 205.606 82.6271 205.81 82.9339 206.014C83.2408 206.218 83.5988 206.371 83.9569 206.423C84.4172 206.525 84.9286 206.525 85.389 206.371C85.9004 206.218 86.2584 205.963 86.6676 205.657C86.7699 205.554 86.821 205.452 86.9233 205.35C87.0256 205.197 87.0768 204.993 87.0768 204.789C87.1279 204.482 87.0768 204.074 86.9233 203.818C86.6165 203.41 86.3096 203.001 86.0027 202.593C85.747 202.286 85.4913 202.031 85.1332 201.929C84.7752 201.827 84.3149 201.878 84.008 202.082C83.7011 202.286 83.3943 202.593 83.3431 202.95C83.2408 203.308 83.2408 203.767 83.4966 204.074C83.8034 204.482 84.1103 204.891 84.4172 205.299C84.5195 204.686 84.5706 204.074 84.6729 203.512L84.6218 203.563C84.7241 203.461 84.8264 203.41 84.9286 203.308C84.7752 203.41 84.6729 203.512 84.5195 203.563C84.6218 203.512 84.7752 203.461 84.8775 203.41C84.7752 203.461 84.6218 203.512 84.5195 203.512C84.6729 203.512 84.7752 203.461 84.9286 203.461C84.8264 203.461 84.7241 203.461 84.6218 203.461C84.7752 203.461 84.8775 203.512 85.0309 203.512C84.8775 203.512 84.7241 203.461 84.5706 203.41C84.6729 203.461 84.8264 203.512 84.9286 203.563C84.7241 203.461 84.5706 203.359 84.4172 203.257C84.6729 203.665 84.9286 204.125 85.1332 204.533C85.1332 204.38 85.1332 204.278 85.1844 204.125C85.1844 204.278 85.1332 204.38 85.1332 204.533C85.1844 204.278 85.2355 204.023 85.3378 203.818C85.2867 203.92 85.2355 204.074 85.1844 204.176C85.2355 204.023 85.3378 203.869 85.4401 203.716C85.3378 203.818 85.2867 203.92 85.1844 204.023C85.2867 203.92 85.3378 203.818 85.4913 203.716C85.389 203.818 85.2867 203.869 85.1844 203.972C85.2867 203.869 85.389 203.818 85.5424 203.767C85.4401 203.818 85.2867 203.869 85.1844 203.92C85.3378 203.869 85.4913 203.818 85.5935 203.818C85.4401 203.818 85.3378 203.869 85.1844 203.869C85.3378 203.869 85.4913 203.869 85.6958 203.869C85.5424 203.869 85.4401 203.818 85.2867 203.818C85.4913 203.869 85.6958 203.92 85.8493 203.972C85.747 203.92 85.5935 203.869 85.4913 203.818C85.6958 203.92 85.9004 204.023 86.105 204.176C86.0027 204.074 85.9004 204.023 85.7981 203.92C86.0027 204.074 86.1562 204.227 86.3096 204.431C86.2073 204.329 86.1562 204.227 86.0539 204.125C86.2584 204.38 86.3607 204.635 86.5142 204.891C86.463 204.789 86.4119 204.635 86.3607 204.533C86.3607 204.584 86.3607 204.584 86.4119 204.635C86.5653 204.993 86.7188 205.35 87.0768 205.503C87.3837 205.657 87.6905 205.708 88.0486 205.657C88.7135 205.554 89.4295 204.942 89.3272 204.176C89.2761 203.869 89.2761 203.563 89.2249 203.308C89.1738 202.899 89.0715 202.542 88.7646 202.235C88.5089 201.98 88.0997 201.776 87.6905 201.776C87.2814 201.776 86.9233 201.929 86.6165 202.235C86.2073 202.593 86.0027 202.95 86.0539 203.359Z" fill="#1C1C1B"></path><path d="M461.211 334.744C461.466 334.591 461.722 334.488 462.029 334.335C461.569 333.467 461.057 332.599 460.597 331.731C460.29 332.037 459.983 332.344 459.727 332.701C459.42 333.161 459.267 333.569 459.114 334.131C458.909 334.846 458.96 335.663 459.216 336.378C459.523 337.144 460.085 337.807 460.853 338.165C461.722 338.573 462.694 338.471 463.614 338.216C463.921 338.114 464.228 337.961 464.484 337.705C464.689 337.45 464.791 337.042 464.842 336.684C464.893 336.327 464.944 335.969 464.842 335.612C464.74 335.152 464.586 334.693 464.279 334.284C463.972 333.876 463.563 333.62 463.154 333.365C463.052 333.314 462.898 333.314 462.796 333.263C462.591 333.212 462.387 333.212 462.233 333.314C461.927 333.365 461.569 333.569 461.415 333.825C461.159 334.284 460.853 334.693 460.597 335.152C460.392 335.51 460.239 335.816 460.29 336.225C460.341 336.582 460.546 337.042 460.853 337.246C461.159 337.45 461.569 337.603 461.927 337.552C462.285 337.501 462.745 337.348 462.95 336.99C463.205 336.531 463.512 336.122 463.768 335.663C463.154 335.816 462.591 335.969 461.978 336.071L462.029 336.122C461.927 336.071 461.824 335.969 461.722 335.918C461.875 336.02 461.978 336.122 462.131 336.225C462.029 336.122 461.927 336.02 461.875 335.969C461.978 336.071 462.029 336.173 462.08 336.276C462.029 336.173 461.927 336.02 461.875 335.918C461.927 336.02 461.978 336.122 461.978 336.225C461.927 336.071 461.927 335.969 461.875 335.816C461.927 335.969 461.927 336.122 461.927 336.276C461.927 336.122 461.927 336.02 461.927 335.867C461.927 336.071 461.875 336.276 461.824 336.48C462.131 336.071 462.438 335.714 462.745 335.305C462.643 335.356 462.489 335.408 462.387 335.408C462.54 335.356 462.643 335.356 462.796 335.305C462.54 335.356 462.285 335.408 462.029 335.408C462.182 335.408 462.285 335.408 462.438 335.408C462.285 335.408 462.08 335.356 461.927 335.305C462.029 335.356 462.182 335.356 462.285 335.408C462.131 335.356 462.029 335.305 461.927 335.254C462.029 335.305 462.131 335.408 462.233 335.459C462.131 335.408 462.029 335.305 461.927 335.203C462.029 335.305 462.131 335.408 462.182 335.459C462.08 335.356 461.978 335.254 461.927 335.101C461.978 335.203 462.08 335.356 462.131 335.459C462.029 335.305 461.978 335.152 461.978 334.999C462.029 335.152 462.029 335.254 462.08 335.408C462.029 335.203 462.029 334.999 462.029 334.795C462.029 334.948 462.029 335.05 462.029 335.203C462.029 334.948 462.08 334.744 462.131 334.488C462.08 334.591 462.08 334.744 462.029 334.846C462.08 334.591 462.182 334.386 462.336 334.182C462.285 334.284 462.182 334.386 462.131 334.488C462.285 334.233 462.489 334.029 462.694 333.825C462.592 333.927 462.489 334.029 462.438 334.08L462.489 334.029C462.796 333.774 463.052 333.467 463.052 333.059C463.103 332.701 463.052 332.395 462.898 332.088C462.591 331.476 461.722 331.067 461.057 331.425C460.801 331.578 460.546 331.68 460.239 331.833C459.881 332.037 459.574 332.242 459.42 332.599C459.267 332.957 459.267 333.416 459.369 333.722C459.523 334.08 459.778 334.386 460.136 334.539C460.443 334.846 460.904 334.948 461.211 334.744Z" fill="#1C1C1B"></path><defs><linearGradient id="paint0_linear" x1="273" y1="0.5" x2="273" y2="546.5" gradientUnits="userSpaceOnUse"><stop stop-color="#5293FF"></stop><stop offset="1" stop-color="#7C66FF"></stop></linearGradient></defs></svg> 